<!-- icon666.com - MILLIONS vector ICONS FREE --><svg viewBox="-64 0 496 496" xmlns="http://www.w3.org/2000/svg"><path d="m280 488h-96v-104l.320312-1.761719c11.199219.480469 26.71875 28.722657 36.800782 25.523438 10.480468-3.363281 5.839844-35.839844 14.558594-42.082031 8.878906-6.238282 38.960937 8 45.441406-.640626 6.320312-8.558593-16.800782-32.160156-13.441406-42.398437 2.082031-6.242187 15.839843-10.800781 25.839843-16.082031h.082031l14.796876 3.921875c20.960937 5.597656 35.601562 24.640625 35.601562 46.398437v19.121094c-17.679688 0-32 14.320312-32 32s14.320312 32 32 32v48zm0 0" fill="#ef7385"></path><path d="m146.878906 407.761719c10.160156 3.199219 25.921875-25.601563 37.121094-25.601563.078125 0 .238281 0 .320312.078125l-.320312 1.761719v104h-160v-80c17.679688 0 32-14.320312 32-32 0-17.039062-13.359375-30.800781-30.160156-31.839844h-.078125c4.398437-16.160156 17.117187-29.199218 33.839843-33.679687l14.796876-3.921875h.082031c10 5.28125 23.757812 9.839844 25.839843 16.082031 3.359376 10.238281-19.761718 33.839844-13.441406 42.398437 6.480469 8.640626 36.5625-5.597656 45.441406.640626 8.71875 6.242187 4.078126 38.71875 14.558594 42.082031zm0 0" fill="#fcd770"></path><path d="m344 376v64c-17.679688 0-32-14.320312-32-32s14.320312-32 32-32zm0 0" fill="#fcd770"></path><path d="m25.839844 344.160156c16.800781 1.039063 30.160156 14.800782 30.160156 31.839844 0 17.679688-14.320312 32-32 32v-51.121094c0-4.398437.558594-8.640625 1.761719-12.71875zm0 0" fill="#ef7385"></path><path d="m144 288c0 22.078125 17.921875 40 40 40s40-17.921875 40-40v-8h80v16c0 4.078125-4.558594 7.441406-10.398438 10.558594-.082031 0-.082031 0-.082031 0-10 5.28125-23.757812 9.839844-25.839843 16.082031-3.359376 10.238281 19.761718 33.839844 13.441406 42.398437-6.480469 8.640626-36.5625-5.597656-45.441406.640626-8.71875 6.242187-4.078126 38.71875-14.558594 42.082031-10.082032 3.199219-25.601563-25.042969-36.800782-25.523438-.082031-.078125-.242187-.078125-.320312-.078125-11.199219 0-26.960938 28.800782-37.121094 25.601563-10.480468-3.363281-5.839844-35.839844-14.558594-42.082031-8.878906-6.238282-38.960937 8-45.441406-.640626-6.320312-8.558593 16.800782-32.160156 13.441406-42.398437-2.082031-6.242187-15.839843-10.800781-25.839843-16.082031 0 0 0 0-.082031 0-5.839844-3.117188-10.398438-6.480469-10.398438-10.558594v-16h80zm0 0" fill="#e6e9ed"></path><path d="m360 80c0 8.835938-7.164062 16-16 16s-16-7.164062-16-16 7.164062-16 16-16 16 7.164062 16 16zm0 0" fill="#fcd770"></path><path d="m40 80c0 8.835938-7.164062 16-16 16s-16-7.164062-16-16 7.164062-16 16-16 16 7.164062 16 16zm0 0" fill="#fcd770"></path><path d="m265.601562 91.199219c-6.242187 8.320312-9.601562 18.402343-9.601562 28.800781l-72-56 7.839844-13.761719c14.960937-26.078125 42.71875-42.238281 72.878906-42.238281 16.722656 0 32.722656 4.960938 46.160156 13.839844 13.441406 8.878906 24.320313 21.601562 30.882813 37.039062l2.238281 5.121094c-8.800781 0-16 7.199219-16 16l-6.800781-3.441406c-6.078125-2.957032-12.71875-4.558594-19.4375-4.558594-13.683594 0-26.5625 6.480469-34.800781 17.359375zm0 0" fill="#3bafda"></path><path d="m176.160156 50.238281 7.839844 13.761719-72 56c0-10.398438-3.359375-20.480469-9.601562-28.800781l-1.359376-1.839844c-8.238281-10.878906-21.117187-17.359375-34.800781-17.359375-6.71875 0-13.359375 1.601562-19.4375 4.558594l-6.800781 3.441406c0-8.800781-7.199219-16-16-16l2.238281-5.121094c6.5625-15.4375 17.441407-28.160156 30.882813-37.039062 13.4375-8.878906 29.4375-13.839844 46.160156-13.839844 30.160156 0 57.917969 16.160156 72.878906 42.238281zm0 0" fill="#ef7385"></path><path d="m112 120 72-56 72 56zm0 0" fill="#ffeaa7"></path><path d="m112 120h144v32h-144zm0 0" fill="#fcd770"></path><path d="m144 280v-16l1.921875-2.960938c33.757813 10.882813 35.917969 10.960938 38.078125 10.960938 13.921875 0 27.039062-4 38.078125-10.960938l1.921875 2.960938v24c0 22.078125-17.921875 40-40 40s-40-17.921875-40-40zm0 0" fill="#f0d0b4"></path><path d="m113.761719 190.160156c7.199219 6.320313 16.398437 9.839844 26.160156 9.839844 7.917969 0 15.597656-2.320312 22.15625-6.71875l7.28125-4.882812c4.320313-2.878907 9.441406-4.398438 14.640625-4.398438s10.320312 1.519531 14.640625 4.398438l7.28125 4.882812c6.558594 4.398438 14.238281 6.71875 22.15625 6.71875 6.882813 0 13.601563-1.761719 26.160156-9.839844l1.761719 1.839844v8c0 25.761719-13.519531 48.398438-33.921875 61.039062-11.039063 6.960938-24.15625 10.960938-38.078125 10.960938-2.160156 0-4.320312-.078125-38.078125-10.960938-4.640625-2.878906-8.960937-6.320312-12.800781-10.160156-13.042969-12.957031-21.121094-31.039062-21.121094-50.878906v-8zm0 0" fill="#f0d0b4"></path><path d="m112 152h160c0 10.398438-3.359375 20.480469-9.601562 28.800781l-2.476563 3.277344c-1.683594 2.242187-3.601563 4.320313-5.683594 6.082031-12.558593 8.078125-19.277343 9.839844-26.160156 9.839844-7.917969 0-15.597656-2.320312-22.15625-6.71875l-7.28125-4.882812c-4.320313-2.878907-9.441406-4.398438-14.640625-4.398438s-10.320312 1.519531-14.640625 4.398438l-7.28125 4.882812c-6.558594 4.398438-14.238281 6.71875-22.15625 6.71875-9.761719 0-18.960937-3.519531-26.160156-9.839844-2.082031-1.761718-4-3.839844-5.683594-6.082031l-2.476563-3.277344c-6.242187-8.320312-9.601562-18.402343-9.601562-28.800781zm0 0" fill="#69d6f4"></path><path d="m184 232c-4.414062 0-8-3.585938-8-8h-16c0 13.230469 10.769531 24 24 24s24-10.769531 24-24h-16c0 4.414062-3.585938 8-8 8zm0 0"></path><path d="m272 96 1.359375-1.816406c6.664063-8.878906 17.273437-14.183594 28.375-14.183594 5.480469 0 10.96875 1.296875 15.867187 3.742188l3.015626 1.515624c2.40625 10.703126 11.957031 18.742188 23.382812 18.742188 13.230469 0 24-10.769531 24-24 0-11.304688-7.878906-20.742188-18.414062-23.28125l-.441407-1.023438c-14.503906-33.839843-47.648437-55.695312-84.464843-55.695312-32.886719 0-63.464844 17.742188-79.785157 46.296875l-.894531 1.574219-.894531-1.574219c-16.320313-28.554687-46.898438-46.296875-79.785157-46.296875-36.816406 0-69.960937 21.855469-84.464843 55.6875l-.441407 1.03125c-10.535156 2.539062-18.414062 11.976562-18.414062 23.28125 0 13.230469 10.769531 24 24 24 11.425781 0 20.976562-8.039062 23.382812-18.753906l3.007813-1.511719c4.90625-2.445313 10.402344-3.742187 15.875-3.742187 11.101563 0 21.710937 5.304687 28.375 14.183593l1.359375 1.832031c5.160156 6.863282 8 15.390626 8 23.992188v24h-16v8c0 12.046875 3.976562 23.976562 11.191406 33.585938l2.449219 3.269531c.832031 1.105469 1.742187 2.121093 2.664063 3.144531h-.304688v8c0 26.183594 12.703125 49.398438 32.207031 64h-.207031v8h-80v24c0 2.511719.679688 4.710938 1.785156 6.71875l-.210937.058594c-24.476563 6.519531-41.574219 28.757812-41.574219 54.09375v139.128906h336v-139.128906c0-25.335938-17.097656-47.574219-41.566406-54.101563l-.210938-.058593c1.097656-2 1.777344-4.199219 1.777344-6.710938v-24h-80v-8h-.207031c19.503906-14.601562 32.207031-37.816406 32.207031-64v-8h-.304688c.921876-1.023438 1.839844-2.046875 2.671876-3.160156l2.433593-3.238282c7.222657-9.625 11.199219-21.554687 11.199219-33.601562v-8h-16v-24c0-8.601562 2.839844-17.128906 8-24zm-88-21.863281 48.6875 37.863281h-97.375zm160 13.863281c-4.414062 0-8-3.585938-8-8s3.585938-8 8-8 8 3.585938 8 8-3.585938 8-8 8zm-79.320312-72c29.214843 0 55.496093 16.785156 68.144531 42.886719-4.183594 2.226562-7.59375 5.617187-9.847657 9.777343-6.65625-3.007812-13.9375-4.664062-21.242187-4.664062-16.109375 0-31.503906 7.695312-41.167969 20.59375l-1.367187 1.804688c-4.238281 5.648437-7.199219 12.128906-9.054688 18.914062l-55.761719-43.367188 4.402344-7.714843c13.488282-23.582031 38.726563-38.230469 65.894532-38.230469zm-240.679688 72c-4.414062 0-8-3.585938-8-8s3.585938-8 8-8 8 3.585938 8 8-3.585938 8-8 8zm42.265625-24c-7.296875 0-14.585937 1.65625-21.242187 4.664062-2.253907-4.160156-5.671876-7.550781-9.847657-9.777343 12.640625-26.101563 38.929688-42.886719 68.144531-42.886719 27.167969 0 52.40625 14.648438 65.886719 38.230469l4.402344 7.714843-55.761719 43.367188c-1.855468-6.792969-4.816406-13.265625-9.054687-18.90625l-1.359375-1.8125c-9.664063-12.898438-25.058594-20.59375-41.167969-20.59375zm196.910156 96c-1.183593 5.777344-3.632812 11.273438-7.183593 16.007812l-2.433594 3.25c-5.992188 7.972657-15.511719 12.742188-25.488282 12.742188-6.308593 0-12.421874-1.847656-17.671874-5.351562l-7.308594-4.863282c-5.683594-3.785156-12.28125-5.785156-19.089844-5.785156s-13.40625 2-19.097656 5.785156l-7.300782 4.863282c-5.25 3.503906-11.363281 5.351562-17.671874 5.351562-9.976563 0-19.503907-4.769531-25.488282-12.734375l-2.441406-3.273437c-3.542969-4.71875-5.992188-10.214844-7.175781-15.992188zm-230.910156 193.710938c9.191406 3.386718 15.734375 12.082031 15.734375 22.289062 0 10.414062-6.710938 19.214844-16 22.527344v-41.648438c0-1.078125.183594-2.109375.265625-3.167968zm-.265625 61.480468c18.230469-3.71875 32-19.871094 32-39.191406 0-17.480469-11.457031-32.34375-27.398438-37.65625 5.078126-9.679688 14.007813-17.160156 25.09375-20.113281l11.871094-3.167969c1.890625.929688 3.800782 1.839844 5.722656 2.730469 4.566407 2.128906 12.222657 5.679687 13.335938 7.101562.214844 2.464844-3.953125 10-6.449219 14.496094-5.945312 10.730469-12.097656 21.824219-5.679687 30.449219 6.351562 8.527344 18.96875 6.25 31.167968 4.023437 5.175782-.941406 13.855469-2.527343 15.761719-1.816406 1.582031 1.824219 2.695313 10.160156 3.359375 15.144531 1.621094 12.234375 3.304688 24.878906 13.703125 28.183594 10.046875 3.167969 18.710938-5.816406 27.128907-14.496094 1.199218-1.238281 2.765624-2.847656 4.390624-4.445312v83.566406h-80.007812v-88h-16v88h-48zm304 15.335938c-9.289062-3.3125-16-12.113282-16-22.527344s6.710938-19.214844 16-22.527344zm0-73.65625v11.9375c-18.230469 3.71875-32 19.871094-32 39.191406s13.769531 35.472656 32 39.191406v32.808594h-48v-88h-16v88h-80v-83.558594c1.625 1.589844 3.191406 3.199219 4.390625 4.4375 7.234375 7.464844 14.6875 15.152344 22.976563 15.152344 1.351562 0 2.738281-.207031 4.144531-.65625 10.398437-3.304688 12.082031-15.949219 13.710937-28.175781.65625-4.984375 1.769532-13.328125 2.945313-14.847657 2.296875-.992187 10.984375.578126 16.167969 1.511719 12.199218 2.214844 24.824218 4.519531 31.167968-4.023437 6.417969-8.625.265625-19.71875-5.679687-30.449219-2.496094-4.496094-6.664063-12.039063-6.65625-13.886719 1.320312-2.023437 8.96875-5.574218 13.535156-7.703125 1.929687-.898437 3.839844-1.808593 5.730469-2.738281l11.871094 3.167969c17.488281 4.65625 29.695312 20.554687 29.695312 38.640625zm-40-68.871094v7.34375c-1.777344 2.242188-9.398438 5.792969-14.039062 7.945312-9.882813 4.582032-19.207032 8.925782-21.832032 16.832032-2.722656 8.207031 2.34375 17.351562 7.703125 27.023437 2.070313 3.734375 5.3125 9.597657 6.167969 12.785157-3.425781.238281-10.367188-1-14.792969-1.808594-10.902343-1.992188-21.207031-3.855469-28.128906 1.078125-6.933594 4.9375-8.285156 15.121093-9.726563 25.890625-.582031 4.421875-1.511718 11.414062-2.832031 14.40625-2.800781-1.65625-7.589843-6.617188-10.632812-9.753906-7.773438-8.015626-15.117188-15.589844-23.878907-15.589844-8.761718 0-16.105468 7.566406-23.871093 15.589844-3.046875 3.136718-7.847657 8.097656-10.640625 9.753906-1.328125-2.984375-2.257813-9.984375-2.839844-14.40625-1.433594-10.777344-2.785156-20.953125-9.71875-25.890625-6.921875-4.933594-17.226562-3.0625-28.128906-1.078125-4.425782.808594-11.367188 2.039062-14.792969 1.808594.847656-3.175782 4.097656-9.050782 6.167969-12.785157 5.359375-9.671875 10.425781-18.816406 7.703125-27.023437-2.621094-7.90625-11.957031-12.242188-21.839844-16.832032-4.632813-2.160156-12.253906-5.703124-14.03125-7.9375v-7.351562h64c0 26.472656 21.527344 48 48 48s48-21.527344 48-48zm-80 0c0 17.648438-14.351562 32-32 32s-32-14.351562-32-32v-14.726562c9.808594 4.300781 20.625 6.726562 32 6.726562s22.191406-2.425781 32-6.726562zm-32-24c-34.0625 0-61.921875-26.769531-63.816406-60.367188 6.152344 2.792969 12.863281 4.367188 19.746094 4.367188 9.484374 0 18.664062-2.785156 26.542968-8.039062l7.296875-4.863282c6.09375-4.050781 14.367188-4.050781 20.445313 0l7.304687 4.863282c7.886719 5.253906 17.066407 8.039062 26.550781 8.039062 6.882813 0 13.59375-1.574219 19.746094-4.367188-1.894531 33.589844-29.753906 60.367188-63.816406 60.367188zm-64-120v-16h128v16zm0 0"></path><path d="m176 88h16v16h-16zm0 0"></path><path d="m208 432h16v16h-16zm0 0"></path><path d="m144 432h16v16h-16zm0 0"></path></svg>