<svg width="448" height="448" viewBox="0 0 448 448" fill="none" xmlns="http://www.w3.org/2000/svg">
<path d="M31.5 31.5C0 63 0 113.7 0 215V233C0 334.3 0 385 31.5 416.5C63 448 113.7 448 215 448H233C334.3 448 385 448 416.5 416.5C448 385 448 334.3 448 233V215C448 113.7 448 63 416.5 31.5C385 0 334.3 0 233 0H215C113.7 0 63 0 31.5 31.5ZM75.6 136.3H126.7C128.4 221.8 166.1 258 196 265.4V136.3H244.2V210C273.7 206.8 304.6 173.2 315.1 136.3H363.3C359.3 155.4 351.5 173.6 340.2 189.6C328.9 205.6 314.5 219.1 297.7 229.2C316.4 238.5 332.9 251.6 346.1 267.8C359.4 283.9 369 302.6 374.5 322.7H321.4C316.6 305.3 306.6 289.6 292.9 277.8C279.1 265.9 262.2 258.4 244.2 256.1V322.7H238.4C136.3 322.7 78 252.7 75.6 136.3Z" fill="black"/>
</svg>
