<!-- icon666.com - MILLIONS vector ICONS FREE --><svg version="1.1" id="Capa_1" xmlns="http://www.w3.org/2000/svg" xmlns:xlink="http://www.w3.org/1999/xlink" x="0px" y="0px" viewBox="0 0 511.999 511.999" style="enable-background:new 0 0 511.999 511.999;" xml:space="preserve"><path style="fill:#FFDC0F;" d="M27.378,159.243c-0.067,1.537-0.146,3.072-0.238,4.605c-2.034,33.723-0.78,67.493,4.372,100.902 c107.394-3.711,215.107-5.853,322.675-1.195c12.655,0.548,25.306,1.185,37.951,1.911c13.036,0.749,26.215,1.584,39.069-0.711 c12.854-2.296,25.565-8.087,33.599-18.38c8.737-11.193,10.884-26.053,12.108-40.2c2.7-31.202,2.384-62.561,1.539-93.838 c-0.178-6.607-1.28-13.68-0.982-20.229c0.257-5.66,2.863-10.59,4.258-16.097c3.34-13.185,3.173-27.015,2.953-40.516 c-0.122-7.481-0.861-16.165-7.065-20.347c-3.724-2.51-8.499-2.667-12.99-2.739c-31.54-0.505-63.081-1.01-94.621-1.515 c-108.23-1.733-216.381-4.858-324.525-1.73C34.862,9.471,26.488,12.08,25.461,23.31c-1.285,14.049-0.303,28.836-0.307,42.953 C25.154,96.994,28.709,128.6,27.378,159.243z"></path><path style="fill:#B2B2B2;" d="M209.048,306.107c-8.395-2.81-16.085-7.37-24.248-10.797c-23.853-10.013-52.644-9.516-74.543,4.254 s-35.062,41.557-28.816,66.661c3.887,15.62,14.506,29.37,15.84,45.411c1.28,15.385-6.084,29.514-11.007,43.62 c-4.041,11.578-10.31,27.563-2.396,38.667c5.026,7.052,13.76,10.937,22.414,11.248c8.653,0.311,17.19-2.643,24.612-7.103 c13.535-8.133,22.398-20.904,30.245-34.253c7.856-13.363,13.38-27.982,31.617-25.615c7.939,1.031,16.525,3.42,23.558-0.404 c6.61-3.594,9.678-11.669,16.043-15.683c9.283-5.855,33.867-6.171,40.996,3.209c3.782,4.976,6.205,11.341,11.581,14.529 c10.517,6.237,24.524-3.627,35.963,0.692c6.796,2.565,10.798,9.412,14.56,15.625c13.071,21.588,31.919,42.469,56.898,46.065 c10.021,1.443,21.504-0.723,27.5-8.881c4.738-6.446,5.005-15.255,3.108-23.027s-5.693-14.926-8.553-22.398 c-5.727-14.961-7.669-31.353-5.598-47.238c1.646-12.618,5.756-24.802,7.656-37.384c3.678-24.35-6.582-48.001-27.379-61.416 c-17.36-11.199-39.067-17.562-58.919-11.846c-10.478,3.017-19.766,9.156-29.911,13.155c-14.891,5.87-31.055,6.903-46.898,6.923 C238.982,310.138,222.812,310.714,209.048,306.107z"></path><path style="fill:#F76B25;" d="M15.133,386.593c20.223-4.429,42.544,2.422,56.8,17.434c8.919-8.703,11.28-22.098,11.471-34.557 c0.19-12.46-1.289-25.161,1.843-37.222c2.86-11.015,9.619-20.976,18.799-27.703c4.493-3.292,9.584-5.873,13.372-9.956 c4.644-5.006,6.851-11.737,8.928-18.242c8.543-26.75,17.086-53.5,25.63-80.249c-0.999,3.127-11.063,1.027-12.967,0.277 c-4.565-1.799-7.846-5.331-9.802-9.716c1.382,3.098-16.97,2.506-18.718,1.877c-6.188-2.227-11.909-7.518-12.654-14.287 c0.769,6.739-6.805,13.97-9.681,19.635c-21.471,42.299-37.042,87.708-52.732,132.536C28.427,346.398,21.664,366.458,15.133,386.593z "></path><path style="fill:#FFCFB4;" d="M105.634,187.184c6.051,5.508,16.485,5.187,22.187-0.681c3.249,4.171,6.663,8.48,11.41,10.808 c4.747,2.328,11.232,2.023,14.504-2.13c2.474-3.14,2.515-7.49,2.443-11.487c-0.199-11.069,0.447-22.606-0.769-33.572 c0.407,3.667-12.404,0.441-13.807-0.541c-4.69-3.281-6.357-9.51-7.098-15.077C123.452,145.85,83.016,166.595,105.634,187.184z"></path><path style="fill:#FFDC0F;" d="M10.155,404.757c10.192-0.544,20.522-1.079,30.509,1.028s19.759,7.201,25.344,15.743 c1.942-4.81,3.885-9.619,5.827-14.429c-7.815-6.102-15.733-12.267-24.801-16.279c-7.42-3.283-18.852-6.449-26.914-3.48 C15.06,389.201,10.485,404.738,10.155,404.757z"></path><path style="fill:#FF6E73;" d="M3.234,431.926c-0.644,8.473,0.062,16.748,2.071,21.341c2.409,5.507,7.792,9.354,13.6,10.904 s11.998,1.028,17.841-0.382c5.235-1.263,10.444-3.317,14.316-7.06c2.874-2.779,4.858-6.337,6.639-9.917 c3.877-7.794,6.996-15.965,9.296-24.361c-6.784-4.479-13.76-8.666-20.902-12.548c-7.765-4.22-26.322-10.62-34.097-3.806 C6.926,410.543,4.035,421.387,3.234,431.926z"></path><path style="fill:#14DDF7;" d="M135.782,40.544c2.07,6.754,8.529,11.429,15.338,13.309c6.809,1.88,14.016,1.434,21.065,0.973 c19.06-1.246,38.12-2.492,57.18-3.738c7.138-0.467,15.563-0.37,19.791,5.401c2.599,3.547,2.767,8.268,2.716,12.664 c-0.126,10.928-0.981,21.849-2.557,32.663c-0.598,4.103-1.38,8.381-3.94,11.642c-5.436,6.926-15.852,6.293-24.644,5.836 c-10.181-0.529-20.42,0.065-30.471,1.766c-3.457,0.585-7.229,1.511-9.253,4.375c-1.44,2.038-1.689,4.66-1.87,7.149 c-1.501,20.694-0.59,41.038-1.577,61.821c-0.875,18.424,1.294,36.434,0.709,54.92c-0.113,3.563-1.372,13.332,2.132,15.73 c4.553,3.117,13.138-0.803,18.081-1.225c9.999-0.854,20.548-0.362,30.646-0.585c23.718-0.524,47.447-0.559,71.166-0.105 c-4.784-0.092,0.475-102.25,1.049-110.945c0.187-2.837,0.396-5.759,1.656-8.308c3.681-7.448,13.822-8.176,22.127-7.966 c21.705,0.547,43.427,0.438,65.125-0.329c12.362-0.436,24.816-1.101,36.795-4.184c5.075-1.306,10.389-3.297,13.353-7.619 c2.155-3.142,2.747-7.067,3.238-10.846c4.313-33.198,5.205-66.839,2.659-100.218c-17.913-2.016-35.97-2.742-53.987-2.171 c-0.95,17.729-1.899,35.457-2.849,53.186c-0.527,9.835-1.069,19.766-3.75,29.244c-0.53,1.874-1.217,3.836-2.742,5.047 c-1.496,1.189-3.512,1.43-5.414,1.61c-23.003,2.173-46.234,1.912-69.182-0.776c-2.379-0.279-4.878-0.632-6.783-2.086 c-2.498-1.907-3.376-5.223-3.992-8.305c-5.164-25.827-2.969-52.489-0.754-78.734c-39.594-0.125-79.58-0.587-119.319-1.907 c-9.294-0.309-27.667-5.568-35.884,0.181C134.196,13.226,133.428,32.862,135.782,40.544z"></path><path style="fill:#F4F4F4;" d="M432.725,305.216c8.772-5.635,25.434-17.866,27.338-14.8c6.205,9.993,12.757,19.77,19.64,29.308 c6.13-3.872,11.789-8.49,16.812-13.718c1.014-1.055,2.049-2.229,2.261-3.677c0.344-2.348-1.543-4.37-3.278-5.989 c-5.491-5.124-10.982-10.247-16.472-15.371c8.683-7.331,16.998-15.096,24.904-23.259c1.491-1.539,3.084-3.475,2.624-5.568 c-0.237-1.08-0.993-1.962-1.737-2.781c-8.512-9.374-18.878-17.057-30.322-22.475c-8.114-3.841-16.739-6.546-24.765-10.568 c-10.23-5.126-19.342-12.316-29.714-17.148c-9.421-4.389-13.757,0.274-12.223,9.181c1.858,10.789,4.465,21.515,6.964,32.17 c5.222,22.271,7.926,45.221,13.148,67.362C428.731,307.68,430.467,306.666,432.725,305.216z"></path><path style="fill:#FF3535;" d="M199.739,183.12c-4.056,13.174,3.158,29.944,15.337,36.644c8.656,4.762,19.139,5.348,28.833,3.44 c7.99-1.572,15.896-4.933,21.345-10.984c6.402-7.11,8.67-17.02,9.447-26.556c0.485-5.947,0.439-12.155-2.03-17.587 c-2.091-4.601-5.817-8.336-10.105-11.011c-12.018-7.499-28.571-5.214-41.349-0.94C209.877,159.921,203.058,172.34,199.739,183.12z"></path><g><path style="fill:#4C4B46;" d="M140.369,149.244c7.429,5.445,15.395,5.82,16.342-4.314c0.717-7.671-0.892-16.504-5.571-22.854 c-0.176-0.239-0.377-0.489-0.664-0.568c-0.421-0.115-0.833,0.181-1.168,0.46c-3.226,2.687-6.065,6.143-9.426,8.614 c-1.733,1.274-4.872,1.973-6.191,3.656C129.192,139.979,136.067,146.09,140.369,149.244z"></path><path style="fill:#4C4B46;" d="M126.045,338.365c-1.596,0.089-3.416,0.295-4.339,1.6c-0.599,0.846-0.655,1.949-0.684,2.985 c-0.218,7.927-0.09,15.864,0.387,23.779c5.828,0.34,11.656,0.681,17.484,1.021c0.791,6.19,1.583,12.38,2.374,18.57 c9.475-0.037,18.95-0.073,28.425-0.11c-0.521-6.758-1.042-13.517-1.564-20.275c5.332-0.467,10.664-0.934,15.996-1.402 c1.111-0.097,2.351-0.26,3.045-1.133c0.642-0.806,0.594-1.945,0.508-2.972c-0.628-7.42-1.648-14.806-3.054-22.118 c-4.688,0.083-9.376,0.167-14.064,0.25c-0.597,0.011-1.235,0.01-1.733-0.32c-0.609-0.403-0.835-1.18-0.951-1.901 c-0.543-3.378,0.347-6.948-0.719-10.199c-2.452-7.482-14.43-9.637-20.851-6.505c-6.831,3.332-3.956,11.606-5.508,17.73 C136.112,338.335,130.86,338.096,126.045,338.365z"></path><path style="fill:#4C4B46;" d="M376.453,337.865c1.596,0.089,3.415,0.295,4.339,1.6c0.599,0.846,0.655,1.949,0.684,2.985 c0.219,7.927,0.09,15.864-0.387,23.779c-5.828,0.34-11.656,0.681-17.484,1.021c-0.791,6.19-1.583,12.38-2.374,18.57 c-9.475-0.037-18.95-0.073-28.425-0.11c0.521-6.758,1.042-13.517,1.563-20.275c-5.332-0.467-10.664-0.934-15.996-1.402 c-1.111-0.097-2.351-0.26-3.045-1.133c-0.642-0.806-0.594-1.945-0.508-2.972c0.628-7.42,1.647-14.806,3.054-22.118 c4.688,0.083,9.376,0.167,14.064,0.25c0.597,0.011,1.235,0.01,1.733-0.32c0.609-0.403,0.835-1.18,0.951-1.901 c0.543-3.378-0.347-6.948,0.719-10.199c2.452-7.482,14.43-9.637,20.851-6.505c6.831,3.332,3.956,11.606,5.508,17.73 C366.387,337.835,371.638,337.596,376.453,337.865z"></path><path style="fill:#4C4B46;" d="M174.351,395.621c-2.095,4.783-2.613,10.392-0.678,15.241c2.013,5.046,6.542,8.861,11.664,10.67 c5.122,1.809,10.775,1.749,16.074,0.55c6.541-1.48,12.833-4.805,16.926-10.118c1.809-2.348,3.166-5.061,3.824-7.952 c1.967-8.646-2.984-18.093-10.803-22.277C197.56,374.353,180.361,381.899,174.351,395.621z"></path><path style="fill:#4C4B46;" d="M230.332,355.184c-2.377,0.997-4.443,3.183-4.501,5.76c-0.059,2.629,1.991,4.937,4.394,6.006 s5.111,1.158,7.74,1.229c8.579,0.233,17.159,0.466,25.738,0.698c2.845,0.077,5.776,0.141,8.436-0.872s5.013-3.381,5.11-6.225 c0.1-2.922-2.211-5.492-4.904-6.631c-5.998-2.537-14.294-1.171-20.724-1.177C245.102,353.965,236.414,352.624,230.332,355.184z"></path><path style="fill:#4C4B46;" d="M287.21,412.828c6.043,7.461,16.09,11.001,25.68,10.53c3.465-0.17,6.989-0.846,9.955-2.646 c6.323-3.838,8.791-12.151,7.683-19.464c-1.501-9.9-8.92-18.667-18.437-21.784c-8.3-2.718-21.555-1.305-26.996,6.417 C279.662,393.59,281.612,405.917,287.21,412.828z"></path></g><path d="M171.236,396.322c-1.823,4.77-1.974,9.985-0.666,14.904c4.57,17.181,24.091,21.914,38.563,13.663 c13.323-7.595,23.198-27.527,10.705-40.256c-7.057-7.19-17.178-9.159-26.752-6.676C182.985,380.577,175.02,386.424,171.236,396.322z M184.36,387.648c7.108-5.875,16.898-5.676,24.924-1.64c14.387,7.236,8.222,24.158-3.078,31.215 c-10.643,6.647-25.255,4.034-28.515-9.207C175.917,400.809,178.626,392.388,184.36,387.648z"></path><path d="M121.295,369.432c4.935,1.134,10.361,1.442,15.954,1.349c-0.262,5.454-0.145,10.807,1.25,14.332 c1.481,3.743,1.149,2.418,4.895,3.934c5.733,2.32,19.815,1.332,25.729-0.347c0.956-0.271,1.826-1.062,2.054-2.054 c1.274-5.544,1.515-11.703,1.303-18.028c6.873,0.301,15.976,1.449,18.342-5.538c1.963-5.798,2.496-22.221-3.597-26.08 c-3.391-2.147-9.693-0.652-13.535-0.706c-1.119-0.016-2.236-0.033-3.354-0.05c0.231-6.945,1.748-16.667-5.51-19.125 c-5.798-1.963-22.221-2.496-26.079,3.598c-2.147,3.391-0.652,9.693-0.707,13.535c-0.006,0.432-0.012,0.863-0.019,1.294 c-3.386-0.185-6.812-0.284-10.189,0.089c-1.378,0.152-2.802,0.357-4.119,0.807c-1.206,0.413-2.642,0.684-3.478,1.738 c-0.676,0.853-0.902,2.119-1.216,3.142c-0.426,1.39-0.728,2.827-0.961,4.261c-0.468,2.875-0.585,5.794-0.494,8.702 c0.136,4.356,0.488,8.881,1.678,13.093C119.512,368.333,120.302,369.203,121.295,369.432z M165.719,381.998 c-0.806,1.586-2.851,2.059-4.63,2.036c-1.337-0.017-2.668-0.023-3.997-0.027c-3.619-0.011-7.224-0.007-10.882-0.182 c-0.974-0.047-2.055-0.158-2.702-0.887c-0.607-0.683-0.634-1.686-0.629-2.599c0.018-3.256,0.029-6.512,0.04-9.769 c7.757-0.441,15.627-1.386,22.819-1.819c0.134,3.484,0.261,6.968,0.366,10.455C166.131,380.154,166.15,381.151,165.719,381.998z M164.711,341.435c0.209,7.182,0.507,14.37,0.797,21.564c-7.514,0.227-15.034,0.542-22.561,0.843 c0.036-7.548,0.103-15.098,0.276-22.644C150.386,341.229,157.549,341.289,164.711,341.435z M182.182,342.007 c0.696,0.033,1.446,0.087,1.981,0.533c0.647,0.54,0.772,1.47,0.844,2.309c0.425,4.921,0.718,9.593-0.164,14.443 c-0.544,2.994-2.535,2.957-5.343,3.315c-2.354,0.3-4.839,0.328-7.314,0.323c-0.494-7.3-1.355-14.64-1.732-21.356 C174.365,341.684,178.275,341.819,182.182,342.007z M143.752,325.758c0.033-0.696,0.087-1.446,0.533-1.981 c0.54-0.647,1.469-0.771,2.309-0.844c4.922-0.425,9.593-0.718,14.443,0.164c2.994,0.544,2.957,2.535,3.315,5.343 c0.317,2.487,0.332,5.12,0.322,7.732c-5.516-0.064-11.022-0.077-16.54,0.129c-1.498-0.113-3.106-0.25-4.768-0.383 C143.47,332.531,143.59,329.145,143.752,325.758z M123.934,355.346c0.011-3.62,0.007-7.224,0.182-10.882 c0.047-0.974,0.158-2.055,0.887-2.702c0.682-0.606,1.687-0.634,2.599-0.629c3.445,0.018,6.89,0.03,10.336,0.043 c-0.085,6.217-0.124,12.415,0.108,18.631c-0.101,1.338-0.221,2.768-0.34,4.242c-2.989,0.113-5.979,0.22-8.97,0.31 c-0.95,0.028-1.946,0.047-2.793-0.384c-1.586-0.806-2.059-2.851-2.036-4.63C123.924,358.007,123.93,356.675,123.934,355.346z"></path><path d="M293.797,424.889c14.472,8.251,33.993,3.518,38.563-13.663c1.309-4.919,1.158-10.135-0.666-14.904 c-3.784-9.898-11.75-15.745-21.851-18.365c-9.573-2.483-19.694-0.514-26.752,6.676C270.598,397.362,280.474,417.294,293.797,424.889 z M293.645,386.008c8.026-4.036,17.816-4.235,24.924,1.64c5.734,4.74,8.444,13.161,6.669,20.368 c-3.26,13.241-17.872,15.854-28.515,9.207C285.423,410.166,279.258,393.244,293.645,386.008z"></path><path d="M330.449,368.617c-0.211,6.325,0.029,12.485,1.303,18.028c0.229,0.993,1.099,1.784,2.055,2.054 c5.914,1.679,19.996,2.667,25.729,0.347c3.746-1.516,3.414-0.19,4.895-3.934c1.394-3.525,1.511-8.878,1.25-14.332 c5.593,0.093,11.019-0.215,15.954-1.349c0.993-0.229,1.784-1.099,2.055-2.055c1.518-5.355,1.835-11.269,1.695-16.804 c-0.068-2.708-0.298-5.418-1.034-8.033c-0.306-1.087-0.237-2.466-0.587-3.452c-0.554-1.565-2.263-1.782-3.662-2.335 c-3.71-1.468-9.444-1.523-15.192-1.208c-0.006-0.432-0.013-0.862-0.019-1.294c-0.054-3.842,1.441-10.144-0.706-13.535 c-3.859-6.094-20.282-5.56-26.08-3.598c-7.258,2.458-5.741,12.18-5.51,19.125c-1.118,0.017-2.234,0.034-3.354,0.05 c-3.842,0.054-10.144-1.441-13.535,0.706c-6.094,3.859-5.561,20.282-3.598,26.08C314.474,370.066,323.576,368.919,330.449,368.617z M359.707,341.197c0.173,7.547,0.24,15.096,0.276,22.644c-7.526-0.301-15.047-0.616-22.561-0.843 c0.291-7.194,0.588-14.382,0.797-21.564C345.381,341.289,352.544,341.229,359.707,341.197z M360.052,380.339 c0.005,0.913-0.023,1.917-0.629,2.599c-0.648,0.729-1.728,0.84-2.702,0.887c-3.658,0.175-7.262,0.171-10.882,0.182 c-1.329,0.004-2.661,0.01-3.997,0.027c-1.779,0.023-3.824-0.45-4.63-2.036c-0.431-0.847-0.412-1.844-0.384-2.794 c0.105-3.487,0.232-6.971,0.366-10.455c7.192,0.433,15.061,1.377,22.818,1.819C360.023,373.826,360.034,377.082,360.052,380.339z M375.327,341.132c0.913-0.005,1.917,0.023,2.6,0.629c0.729,0.648,0.84,1.729,0.887,2.702c0.175,3.658,0.171,7.263,0.182,10.882 c0.004,1.329,0.01,2.661,0.027,3.997c0.023,1.779-0.45,3.824-2.036,4.63c-0.847,0.431-1.844,0.412-2.794,0.384 c-2.991-0.09-5.981-0.197-8.97-0.31c-0.12-1.474-0.239-2.904-0.34-4.242c0.232-6.216,0.192-12.414,0.108-18.631 C368.437,341.163,371.882,341.151,375.327,341.132z M338.578,328.44c0.358-2.808,0.32-4.798,3.315-5.343 c4.851-0.882,9.522-0.589,14.443-0.164c0.839,0.073,1.769,0.197,2.309,0.844c0.446,0.535,0.5,1.285,0.533,1.981 c0.163,3.386,0.283,6.772,0.386,10.16c-1.662,0.133-3.27,0.27-4.768,0.383c-5.518-0.206-11.024-0.193-16.539-0.129 C338.246,333.559,338.26,330.927,338.578,328.44z M317.922,344.849c0.073-0.839,0.197-1.769,0.844-2.309 c0.535-0.446,1.285-0.5,1.981-0.533c3.908-0.188,7.817-0.324,11.727-0.433c-0.377,6.716-1.238,14.056-1.732,21.356 c-2.474,0.006-4.959-0.023-7.314-0.323c-2.808-0.358-4.798-0.32-5.343-3.315C317.205,354.441,317.498,349.77,317.922,344.849z"></path><path d="M253.281,372.18c8.177,0.023,30.339-0.091,25.123-15c-1.744-4.986-6.808-5.966-11.482-5.981 c-6.345-0.021-12.851,0.383-19.298,1.047c-4.728-0.248-9.451-0.309-14.091,0.255c-4.236,0.515-8.763,2.131-10.139,6.666 C218.704,374.625,245.963,372.159,253.281,372.18z M240.156,356.945c6.208,0.078,12.362,0.495,18.593,0.336 c3.295-0.084,10.763-1.539,13.576,0.93c4.033,3.537-2.094,6.864-5.231,7.704c-1.277,0.342-2.566,0.543-3.864,0.652 c-4.758,0.403-9.521-0.313-14.286,0.001c-4.98,0.329-10.075,1.14-14.993-0.124c-1.426-0.367-2.916-0.993-3.646-2.271 c-1.094-1.914,0.092-4.481,1.959-5.655C234.451,357.143,237.629,356.913,240.156,356.945z"></path><path d="M494.434,287.155c-1.255-0.764-8.536-2.976-8.886-4.224c-1.034-3.697,8.439-10.38,10.538-12.369 c9.166-8.687,25.023-21.395,9.162-31.366c-7.422-4.666-15.365-8.62-23.48-12.338c-0.55-36.128-1.91-71.55,0.466-107.715 c2.119-32.261,5.47-64.657,6.105-96.985c0.143-7.308-1.244-13.064-9.145-14.822c-4.013-0.892-8.368,0.279-12.412,0.505 C456.649,8.404,446.3,7.76,436.157,7.39c-37.46-1.367-74.886-2.958-112.372-3.551c-73.637-1.165-147.452-1.904-221.094-1.053 c-16.818,0.196-33.633,0.567-50.44,1.171c-8.566,0.308-24.22-3.003-29.848,5.73c-4.818,7.475-1.698,21.76-1.707,30.006 c-0.021,18.545-0.083,37.093,0.352,55.634c0.956,40.751,4.165,81.214,4.251,122.022c0.022,10.217,0.062,20.435,0.32,30.65 c0.13,5.127-1.041,12.365,1.75,16.969c4.817,7.947,17.224,3.065,25.224,3.436c-1.136,3.061-2.279,6.121-3.389,9.185 c-9.422,26.02-19.208,52.846-26.528,80.014c-7.587,20.377-14.063,40.968-19.13,62.336c-4.303,18.147-8.63,38.796,12.535,48.115 c15.184,6.686,32.157-0.722,41.286-13.551c7.058-9.918,11.307-21.558,15.809-32.775c4.104-10.225,8.765-20.42,12.282-30.929 c1.3,4.339,2.395,8.727,2.839,13.28c1.174,12.04-1.497,23.896-4.57,35.458c-4.314,16.233-14.167,37.99-6.982,54.739 c13.618,31.744,60.033,6.81,75.408-9.442c6.522-6.894,12.042-14.745,16.938-22.853c3.932-6.511,5.92-11.263,12.55-15.392 c7.177-4.47,10.316-1.838,17.93-1.144c14.549,1.326,26.912-6.826,33.277-19.206c6.241,0.32,12.415,0.678,18.617,0.286 c6.202,0.392,12.377,0.034,18.617-0.286c6.365,12.38,18.728,20.532,33.277,19.206c7.615-0.694,10.753-3.326,17.93,1.144 c6.631,4.129,8.619,8.881,12.551,15.392c4.895,8.108,10.416,15.959,16.938,22.853c15.374,16.252,61.79,41.186,75.407,9.442 c7.185-16.75-2.668-38.507-6.982-54.739c-3.073-11.562-5.744-23.418-4.569-35.458c1.012-10.369,5.327-19.909,8.012-29.874 c8.037-29.834-4.785-61.73-30.178-79.063c-28.125-19.198-65.488-15.176-92.32,3.945c-4.149,2.1-8.407,3.982-13.177,4.764 c-11.779,1.93-23.74-0.829-35.506,0.129c-11.766-0.958-23.727,1.801-35.506-0.129c-4.77-0.782-9.027-2.665-13.176-4.764 c-21.535-15.345-49.845-20.933-74.726-12.63c2.183-6.088,4.283-12.204,6.349-18.332c47.623,2.392,95.998-0.357,143.679-0.198 c24.763,0.082,49.566,0.239,74.308,1.35c21.249,0.954,44.984,5.458,66.234,2.786c0.369,2.838,0.748,5.694,1.091,8.49 c0.896,7.314-0.716,31.062,10.66,31.416c5.258,0.163,10.217-5.544,14.156-8.341c4.51-3.203,9.35-8.178,15.545-4.414 c2.755,1.675,5.559,7.328,7.411,10.017c4.108,5.963,9.613,19.408,18.736,15.53c6.412-2.725,18.447-17.309,18.094-24.809 C504.049,294.184,499.008,289.942,494.434,287.155z M298.741,12.577c2.239,0.022,4.479,0.044,6.719,0.066 c27.92,0.281,55.835,0.944,83.741,1.903c-0.891,6.706-0.527,13.652-1.003,20.367c-0.678,9.585-1.931,19.147-2.372,28.744 c-0.478,10.408,2.526,28.357-10.591,32.883c-7.598,2.622-18.557,0.985-26.308,0.897c-10.279-0.116-20.551-0.519-30.829-0.733 c-1.738-0.036-7.978,0.491-10.024-0.106c-9.244-2.695-7.842-13.747-8.317-20.619C298.3,54.917,297.682,33.679,298.741,12.577z M20.644,384.632c11.843-33.278,21.264-67.436,33.87-100.501c13.176-34.564,27.983-68.243,43.289-101.857 c5.212,10.695,17.755,16.544,27.276,11.246c-14.622,29.543-29.238,58.446-41.226,89.365c-6.7,17.278-13.574,34.508-19.88,51.935 c-6.08,16.8-10.432,34.966-17.149,51.524c-8.923-3.235-18.273-4.228-26.366-1.058C20.522,385.069,20.581,384.849,20.644,384.632z M103.699,170.188c0.426-1.267,1.045-2.481,1.862-3.592c2.052-2.79,4.814-5.075,7.15-7.61c2.57-2.791,5.211-5.523,8.039-8.054 c3.81-3.41,7.79-6.602,11.778-9.789c-0.052,3.832,1.573,7.542,4.742,10.348c3.785,3.352,10.142,5.365,15.381,4.083 c-0.013,0.391-0.033,0.788-0.044,1.177c-0.192,7.194-0.035,14.39-0.137,21.585c-0.04,2.869,0.41,6.147,0.114,8.943 c-0.258,2.437-2.949,4.692-5,5.686c-3.064,1.485-8.666,1.513-11.371-0.916c-3.465-3.111-0.007-10.906-5.171-12.605 c-1.325-0.436-2.814,0.077-3.89,0.965c-2.405,1.986-3.663,4.456-6.623,5.947c-2.942,1.482-6.358,1.659-9.445,0.512 C104.297,184.343,101.542,176.594,103.699,170.188z M136.034,138.33c0.166-0.134,0.331-0.265,0.497-0.399 c3.881-3.124,6.979-7.244,11.226-9.938c4.05-2.569,4.306,2.525,4.776,5.717c0.191,1.294,1.395,14.013,0.433,14.209 c-4.241,0.864-7.606,1.472-11.658-0.953C137.994,144.985,136.317,141.874,136.034,138.33z M60.537,431.181 c-3.904,9.477-8.575,20.637-17.211,26.702c-9.211,6.467-22.859,7.429-31.033-1.511c-8.153-8.919-4.278-20.55-1.804-30.747 c1.443-5.947,2.721-11.923,4.076-17.883c17.428-5.832,37.03,4.551,48.563,16.998C62.263,426.886,61.419,429.039,60.537,431.181z M66.573,416.099c-9.686-12.821-35.099-19.332-50.603-14.352c0.531-2.189,1.075-4.376,1.668-6.553 c0.342-1.256,0.716-2.505,1.07-3.76c18.099-6.085,37.828,6.255,49.964,19.12C67.963,412.4,67.292,414.257,66.573,416.099z M191.4,301.289c6.511,5.763,12.371,11.706,22.288,13.642c7.135,1.393,14.47,1.283,21.687,0.732 c3.444-0.263,7.139-1.136,10.577-0.978c6.943,0.319,13.629,0.324,20.546,0.894c7.562,0.623,15.259,0.814,22.742-0.647 c9.918-1.936,15.777-7.879,22.288-13.642c33.289-15.109,75.573-9.942,94.868,24.689c9.777,17.549,8.834,34.896,2.338,53.312 c-6.007,17.027-8.209,31.707-4.7,49.63c2.926,14.948,24.095,58.744,3.825,67.454c-18.926,8.132-42.503-10.579-53.602-23.83 c-9.216-11.003-14.982-30.629-28.182-37.557c-5.08-2.665-10.267-2.417-15.765-1.559c-13.773,2.149-26.2,1.185-32.1-13.852 c-0.807-2.056-2.527-3.898-4.958-3.775c-14.589,0.738-29.083,0.734-43.575,0c-2.431-0.123-4.152,1.719-4.959,3.775 c-5.9,15.037-18.327,16.002-32.1,13.852c-5.498-0.858-10.685-1.106-15.765,1.559c-13.201,6.927-18.967,26.554-28.182,37.557 c-11.1,13.251-34.676,31.962-53.602,23.83c-20.27-8.71,0.898-52.506,3.824-67.454c3.509-17.922,1.307-32.602-4.699-49.63 c-6.496-18.416-7.439-35.763,2.338-53.312C115.828,291.347,158.111,286.18,191.4,301.289z M118.321,290.565 c-2.678,1.362-5.317,2.841-7.858,4.577c-25.394,17.333-38.215,49.229-30.178,79.063c0.231,0.855,0.486,1.704,0.737,2.553 c-2.94,8.501-6.014,16.942-9.156,25.358c-5.078-4.946-11.725-9.69-18.935-13.182c5.436-13.859,8.98-28.928,13.857-42.981 c6.338-18.263,13.221-36.322,20.175-54.358c7.379-19.139,15.035-38.165,23.438-56.879c6.145-13.685,13.507-27.29,18.424-41.536 c3.812,6.611,11.351,9.811,19.014,8.078C137.87,230.957,127.173,260.535,118.321,290.565z M175.714,150.128 c0.57,10.961,0.241,21.992,0.242,32.966c0.002,25.319-0.464,50.712,1.041,75.984c-13.472-0.046-27.013,0.162-40.232,2.006 c2.251-6.794,4.461-13.601,6.648-20.415c2.406-7.498,4.788-15.003,7.19-22.503c4.185-13.062,9.938-25.083,10.622-39.046 c0.421-8.596-0.609-17.186-0.289-25.782c0.448-12.012,1-24.084-4.775-35.003c-0.796-1.505-3.045-2.524-4.699-1.912 c-12.09,4.469-23.528,17.439-33.07,25.742c-7.556,6.574-18.32,15.874-22.425,26.083c-0.011,0.02-0.023,0.034-0.034,0.055 c-15.28,29.98-28.672,61.259-40.618,92.82c-4.861-1.008-9.366-0.333-14.281-0.942c-6.181-0.766-5.607-0.089-6.131-7.073 c-1.268-16.903-0.444-34.142-0.49-51.083c-0.082-30.635-2.58-60.954-3.787-91.529c-0.599-15.171-0.776-30.356-0.828-45.537 c-0.048-13.897-2.331-29.8-0.492-43.49c1.602-11.925,25.603-8.536,35.007-8.815c16.249-0.482,32.504-0.757,48.76-0.886 c7.336-0.058,14.675-0.049,22.012-0.077c-1.467,10.739-2.533,22.174,0.251,32.628c3.262,12.252,11.928,14.901,23.791,14.417 c19.18-0.783,38.777-0.969,57.852-3.089c6.96-0.774,13.983-2.008,21.016-1.54c15.248,1.013,10.22,15.109,8.942,25.764 c-1.241,10.35,1.328,31.414-10.207,36.583c-7.853,3.519-21.2,1.051-29.557,1.514c-12.303,0.681-26.94-1.345-30.981,12.966 C174.446,137.117,175.386,143.828,175.714,150.128z M296.331,258.783c-8.645-0.064-17.29-0.102-25.934-0.102 c-23.775-0.001-47.549,0.322-71.323,0.476c-6.251,0.041-12.569-0.024-18.907-0.062c1.833-24.401,1.725-48.943,1.844-73.414 c0.058-11.83,0.414-23.735-0.17-35.552c-0.524-10.615-3.334-21.783,10.805-25.401c14.65-3.749,34.853,3.926,48.454-3.555 c11.891-6.54,10.558-25.922,11.68-37.261c1.001-10.126,7.804-27.538-3.934-33.743c-9.666-5.109-23.675-1.406-33.844-0.32 c-9.214,0.984-18.518,1.06-27.776,1.305c-10.321,0.272-21.396,2.244-31.678,1.608c-20.087-1.243-16.662-25.66-14.408-41.093 c51.309-0.138,102.647,0.355,153.945,0.872c-1.72,13.753-2.7,27.471-2.499,41.36c0.184,12.673-1.134,28.22,2.24,40.473 c1.754,6.369,5.472,7.927,11.724,8.498c13.145,1.2,26.796,0.708,40.006,0.915c14.596,0.229,37.185,4.163,43.307-13.249 c3.619-10.293,2.272-22.102,3.065-32.807c1.012-13.663,0.202-29.253,2.622-42.964c2.241,0.081,4.482,0.148,6.722,0.233 c14.361,0.544,28.718,1.323,43.086,1.668c-0.853,16.504-1.827,33.005-2.621,49.512c-0.76,15.796,0.68,34.397-3.779,49.662 c-5.247,17.958-33.182,15.299-48.303,15.375c-16.642,0.083-33.287-0.342-49.93-0.274c-10.176,0.042-25.228-2.304-34.092,4.087 c-7.576,5.462-9.042,15.847-9.881,24.494C293.508,192.94,296.086,225.483,296.331,258.783z M380.749,261.516 c-12.89-0.686-25.769-1.52-38.672-1.92c-12.943-0.403-25.892-0.629-38.842-0.76c0.627-16.374-2.285-33.222-2.21-49.719 c0.076-16.465,0.846-33.204,2.446-49.594c0.333-3.421,0.651-7.248,1.847-10.514c3.871-10.564,8.973-10.189,18.059-10.917 c8.201-0.656,16.573-0.366,24.792-0.337c16.489,0.058,33.016,0.585,49.501,0.197c20.622-0.486,44.838,0.076,48.203-24.387 c2.046-14.869,2.371-29.991,2.799-44.972c0.491-17.181,2.288-34.653,0.767-51.818c6.624,0.127,13.297,0.343,19.91-0.084 c7.88-0.51,10.056,0.748,9.683,8.803c-1.523,32.883-4.068,65.696-6.136,98.553c-2.086,33.136-0.739,65.666-0.287,98.714 c-10.774-4.74-21.622-9.374-31.754-14.969c-6.499-3.589-34.102-24.406-37.95-8.322c-1.867,7.804,4.149,21.553,5.855,28.973 c1.908,8.3,4.601,16.346,7.165,24.418c0.52,3.338,0.981,6.658,1.448,9.979C405.693,264.297,392.336,262.133,380.749,261.516z M493.562,302.947c-0.423,2.301-4.822,6.262-6.424,8.093c-3.721,4.25-2.064,5.78-5.597,2.406 c-4.005-3.823-6.992-10.494-10.288-15.016c-8.543-11.719-15.244-13.658-27.568-5.617c-2.592,1.691-5.591,3.5-7.878,5.583 c-3.132,2.852-2.866,5.313-4.6,1.687c-3.604-7.533-2.72-21.387-3.982-29.75c0.32-0.513,0.483-1.148,0.405-1.901 c-0.59-5.751-1.927-11.284-3.468-16.776c-2.686-15.09-6.195-30.55-11.591-44.384c0.032-1.6,0.316-2.836,0.994-3.451 c2.064-1.872,29.606,15.617,32.96,17.404c9.918,5.283,20.173,9.821,30.384,14.498c5.959,2.729,11.91,5.474,17.807,8.337 c7.852,3.813,6.883,6.715,1.79,13.661c-5.329,7.269-16.673,11.823-20.349,20.299C469.569,293.21,495.847,290.51,493.562,302.947z"></path><path d="M268.465,158.37c-18.3-16.671-62.446-9.941-68.26,17.095c-2.959,5.353-4.755,10.955-4.855,16.201 c-0.562,29.505,33.201,44.542,57.64,32.497C277.013,212.324,291.001,178.9,268.465,158.37z M253.149,216.248 c-20.208,12.039-51.66,1.997-51.247-24.581c0.178-11.506,8.346-23.217,19.114-30.488c13.512-7.523,29.881-9.257,42.399,2.242 C281.111,179.678,271.405,205.373,253.149,216.248z"></path><path d="M360.655,173.625c-3.825-3.65-9.302,1.889-5.778,5.778c1.972,2.177,4.19,4.539,5.92,7.125 c-15.001,0.853-30.208,0.507-45.203,1.096c-2.384,0.094-3.056,3.683-0.58,4.287c14.188,3.462,31.475,3.3,46.557,2.482 c-2.453,3.955-7.135,6.898-9.49,10.946c-2.25,3.869,3.213,8.382,6.338,4.891c4.468-4.992,12.857-11.799,13.473-18.911 C372.486,184.47,365.124,177.89,360.655,173.625z"></path><path d="M176.073,101.19c-8.526-4.688-15.729-10.923-23.62-16.528c-7.448-5.29-15.073-10.117-22.143-15.858 c3.193-0.066,6.386-0.069,9.587-0.188c5.15-0.192,5.133-7.731,0-7.989c-5.51-0.276-10.987-0.252-16.484,0.222 c-9.095,0.785,0.818,23.3,2.32,27.203c1.893,4.919,9.124,3.097,7.989-2.202c-0.352-1.643-0.719-3.268-1.094-4.889 c4.729,3.388,9.59,6.592,14.512,9.787c8.697,5.645,16.612,12.691,26.68,15.785C176.978,107.504,178.983,102.791,176.073,101.19z"></path></svg>