<!-- icon666.com - MILLIONS vector ICONS FREE --><svg id="Capa_1" enable-background="new 0 0 512 512" viewBox="0 0 512 512" xmlns="http://www.w3.org/2000/svg"><path d="m343.17 431.888v-52.89c0-8.284-6.716-15-15-15h-144.083c-8.284 0-15 6.716-15 15v52.89z" fill="#006eff"></path><path d="m343.17 378.998c0-8.284-6.716-15-15-15h-72.17v67.89h87.17z" fill="#003365"></path><path d="m327.917 421.998h-143.834c-41.355 0-75 33.645-75 75 0 8.284 6.716 15 15 15h263.833c8.284 0 15-6.716 15-15 .001-41.355-33.645-75-74.999-75z" fill="#0095ff"></path><path d="m387.917 511.998c8.284 0 15-6.716 15-15 0-41.355-33.645-75-75-75h-71.917v90z" fill="#006eff"></path><path d="m512 359.335v-344.333c0-8.28-6.72-15-15-15h-482c-8.28 0-15 6.72-15 15v344.333z" fill="#e7f0ef"></path><path d="m512 359.335v-344.333c0-8.28-6.72-15-15-15h-241v359.333z" fill="#d6dbda"></path><path d="m230.64 342.002h-200.49c-2.16-36.51 19.44-68.36 50.76-81.53 9.87-4.15 20.71-6.45 32.07-6.45h34.83c10.98 0 21.46 2.14 31.06 6.04 31.86 12.9 53.95 45.04 51.77 81.94z" fill="#ff0059"></path><circle cx="129.723" cy="221.547" fill="#fedbab" r="62.461"></circle><path d="m481.85 342.002h-200.49c-2.16-36.51 19.44-68.36 50.76-81.53 9.87-4.15 20.71-6.45 32.07-6.45h34.83c10.98 0 21.46 2.14 31.06 6.04 31.86 12.9 53.95 45.04 51.77 81.94z" fill="#d20041"></path><circle cx="380.934" cy="221.547" fill="#fec478" r="62.461"></circle><path d="m374.332 35.335h-238.908c-6.509 0-11.786 5.277-11.786 11.786v54.277c0 6.509 5.277 11.786 11.786 11.786h31.35l31.112 31.112c2.301 2.301 5.317 3.452 8.334 3.452s6.032-1.151 8.334-3.452l31.112-31.112h18.425l31.111 31.111c2.21 2.21 5.208 3.452 8.334 3.452s6.124-1.242 8.334-3.452l31.112-31.112h31.351c6.509 0 11.786-5.277 11.786-11.786v-54.276c-.001-6.509-5.278-11.786-11.787-11.786z" fill="#ffda44"></path><path d="m374.332 35.335h-118.471v77.848h8.23l31.111 31.112c2.21 2.21 5.208 3.452 8.334 3.452s6.124-1.242 8.334-3.452l31.112-31.112h31.351c6.509 0 11.786-5.277 11.786-11.786v-54.276c-.001-6.509-5.278-11.786-11.787-11.786z" fill="#f7ce00"></path><path d="m0 315.199v61.799c0 8.284 6.716 15 15 15h482c8.284 0 15-6.716 15-15v-61.799z" fill="#0095ff"></path><path d="m256 315.199v76.799h241c8.284 0 15-6.716 15-15v-61.799z" fill="#006eff"></path></svg>