<!-- icon666.com - MILLIONS vector ICONS FREE --><svg version="1.1" id="Capa_1" xmlns="http://www.w3.org/2000/svg" xmlns:xlink="http://www.w3.org/1999/xlink" x="0px" y="0px" viewBox="0 0 412 412" style="enable-background:new 0 0 412 412;" xml:space="preserve"><path style="fill:#DE856F;" d="M376.5,392c22.188-32.773,35.156-72.309,35.156-114.871C411.656,163.84,319.82,72,206.531,72 C93.24,72,1.4,163.84,1.4,277.129c0,42.563,12.969,82.098,35.16,114.871H376.5z"></path><rect y="392" width="16" height="8"></rect><rect x="216" y="44" style="fill:#E9A953;" width="48" height="28"></rect><path style="fill:#FFFFFF;" d="M218.531,28c0-4.412-3.59-8-8-8c-4.414,0-8.002,3.588-8.002,8s3.588,8,8.002,8 C214.941,36,218.531,32.412,218.531,28z"></path><path style="fill:#7DC4C4;" d="M372,359.383V328h8v31.383c4-1.508,8-5.813,8-10.938v-28.891c0-6.371-6.656-11.555-13.023-11.555 h-0.891c-6.375,0-10.086,5.184-10.086,11.555v28.891C364,353.57,364,357.875,372,359.383z"></path><path d="M380,367.641c8-1.68,16-9.633,16-19.195v-28.891C396,308.773,385.758,300,374.977,300h-0.891 C363.301,300,356,308.773,356,319.555v28.891c0,9.563,4,17.516,16,19.195V392h-8v-20h-24V252h12v-16h16v-24h-18.773L216,108.869V80 h47.227H272V36h-47.695c1.375-2.363,2.227-5.072,2.227-8c0-8.822-7.18-16-16-16c-8.824,0-15.266,7.178-15.266,16 c0,7.434,4.734,13.643,12.734,15.432V44v28c0,0.838,0,35.73,0,33.807L67.83,212H52v24h16v16h12v120H52v20H36.561H32v8 c104,0,244,0,348,0c0-0.445,0-8.434,0-8C380,391.469,380,366.875,380,367.641z M60,392v-12c216,0,156,0,296,0v12H60z M60,220h300v8 c-20,0-282.316,0-293.471,0H60V220z M336.07,212H80.99l127.541-97.65L336.07,212z M76,236h268v8c-92,0-180,0-268,0V236z M88,252h244 v120h-16V264h-28v108h-16V264h-28v108h-16v-76c0-8.82-8.648-16-17.469-16h-4c-8.824,0-14.531,7.18-14.531,16v76h-16V264h-28v108h-16 V264h-28v108H88V252z M124,372h-12V272h12V372z M168,372h-12V272h12V372z M220,372h-20v-76c0-4.414,2.117-8,6.531-8h4 c4.41,0,9.469,3.586,9.469,8V372z M264,372h-12V272h12V372z M308,372h-12V272h12V372z M216,44h48v28h-48V44z M202.529,28 c0-4.412,3.588-8,8.002-8c4.41,0,8,3.588,8,8s-3.59,8-8,8C206.117,36,202.529,32.412,202.529,28z M364,319.555 c0-6.371,3.711-11.555,10.086-11.555h0.891c6.367,0,13.023,5.184,13.023,11.555v28.891c0,5.125-4,9.43-8,10.938V328h-8v31.383 c-8-1.508-8-5.813-8-10.938V319.555z"></path><polygon points="396,144 404,144 404,136 412,136 412,128 404,128 404,120 396,120 396,128 388,128 388,136 396,136 "></polygon><polygon points="44,296 52,296 52,288 44,288 44,280 36,280 36,288 28,288 28,296 36,296 36,304 44,304 "></polygon><polygon style="fill:#FFFFFF;" points="96,140 104,140 104,132 112,132 112,124 104,124 104,116 96,116 96,124 88,124 88,132 96,132 "></polygon><polygon style="fill:#E9A953;" points="316,56 324,56 324,48 332,48 332,40 324,40 324,32 316,32 316,40 308,40 308,48 316,48 "></polygon><polygon style="fill:#FFEFA6;" points="368,268 368,276 380,276 380,288 388,288 388,276 400,276 400,268 388,268 388,256 380,256 380,268 "></polygon><g><path style="fill:#FFFFFF;" d="M344,244v-8H76v8C164,244,252,244,344,244z"></path><path style="fill:#FFFFFF;" d="M360,228v-8H60v8h6.529C77.684,228,340,228,360,228z"></path><path style="fill:#FFFFFF;" d="M104,264h28v108h16V264h28v108h16v-76c0-8.82,5.707-16,14.531-16h4c8.82,0,17.469,7.18,17.469,16v76 h16V264h28v108h16V264h28v108h16V252H88v120h16V264z"></path><path style="fill:#FFFFFF;" d="M60,380v12h296v-12C268,380,152,380,60,380z"></path></g><polygon style="fill:#7DC4C4;" points="208.531,114.35 80.99,212 336.07,212 "></polygon><path style="fill:#E9A953;" d="M210.531,288h-4c-4.414,0-6.531,3.586-6.531,8v76h20v-76C220,291.586,214.941,288,210.531,288z"></path><rect x="396" y="392" width="16" height="8"></rect><g><polygon style="fill:#DE856F;" points="36,100 36,92 44,92 44,84 36,84 36,76 28,76 28,84 20,84 20,92 28,92 28,100 "></polygon><rect x="112" y="272" style="fill:#DE856F;" width="12" height="100"></rect><rect x="156" y="272" style="fill:#DE856F;" width="12" height="100"></rect><rect x="296" y="272" style="fill:#DE856F;" width="12" height="100"></rect><rect x="252" y="272" style="fill:#DE856F;" width="12" height="100"></rect></g><polygon points="104.322,204 140,204 140,196 127.9,196 208.531,134.162 244.09,161.365 248.949,155.01 208.523,124.084 "></polygon><polygon points="160,196 160,204 312.633,204 268.984,170.148 264.082,176.469 289.266,196 "></polygon><path style="fill:#FFFFFF;" d="M208.531,158c-6.619,0-12.002,5.383-12.002,12s5.383,12,12.002,12c6.617,0,12-5.383,12-12 S215.148,158,208.531,158z"></path><path d="M228.531,170c0-11.027-8.977-20-20-20c-11.029,0-20.002,8.973-20.002,20s8.973,20,20.002,20 C219.555,190,228.531,181.027,228.531,170z M208.531,182c-6.619,0-12.002-5.383-12.002-12s5.383-12,12.002-12 c6.617,0,12,5.383,12,12S215.148,182,208.531,182z"></path></svg>