<!-- icon666.com - MILLIONS vector ICONS FREE --><svg viewBox="-3 1 487 487.99829" xmlns="http://www.w3.org/2000/svg"><path d="m336.5 448h120v-296h-120zm40-200c0-8.839844 7.164062-16 16-16h16c8.835938 0 16 7.160156 16 16v48c0 8.835938-7.164062 16-16 16h-16c-8.835938 0-16-7.164062-16-16zm0 112c0-8.839844 7.164062-16 16-16h16c8.835938 0 16 7.160156 16 16v48c0 8.835938-7.164062 16-16 16h-16c-8.835938 0-16-7.164062-16-16zm0 0" fill="#dfce86"></path><path d="m336.5 480h136v-32h-136zm0 0" fill="#403b26"></path><path d="m336.5 104v48h136l-16-96h-168zm0 0" fill="#726658"></path><path d="m144.5 104 48-48h-168l-16 96h136zm0 0" fill="#726658"></path><path d="m224.5 24h-128l-16 32h112zm0 0" fill="#403b26"></path><path d="m400.5 56-16-32h-128l32 32zm0 0" fill="#403b26"></path><path d="m144.5 152h-120v296h120zm-40 256c0 8.835938-7.164062 16-16 16h-16c-8.835938 0-16-7.164062-16-16v-48c0-8.839844 7.164062-16 16-16h16c8.835938 0 16 7.160156 16 16zm0-112c0 8.835938-7.164062 16-16 16h-16c-8.835938 0-16-7.164062-16-16v-48c0-8.839844 7.164062-16 16-16h16c8.835938 0 16 7.160156 16 16zm0 0" fill="#dfce86"></path><path d="m144.5 448h-136v32h136zm0 0" fill="#403b26"></path><path d="m144.5 104v376h192v-376l-96-96zm80 304c0 8.835938-7.164062 16-16 16h-16c-8.835938 0-16-7.164062-16-16v-48c0-8.839844 7.164062-16 16-16h16c8.835938 0 16 7.160156 16 16zm0-112c0 8.835938-7.164062 16-16 16h-16c-8.835938 0-16-7.164062-16-16v-48c0-8.839844 7.164062-16 16-16h16c8.835938 0 16 7.160156 16 16zm80 112c0 8.835938-7.164062 16-16 16h-16c-8.835938 0-16-7.164062-16-16v-48c0-8.839844 7.164062-16 16-16h16c8.835938 0 16 7.160156 16 16zm0-112c0 8.835938-7.164062 16-16 16h-16c-8.835938 0-16-7.164062-16-16v-48c0-8.839844 7.164062-16 16-16h16c8.835938 0 16 7.160156 16 16zm-64-216c35.34375 0 64 28.652344 64 64 0 35.34375-28.65625 64-64 64-35.347656 0-64-28.65625-64-64 .039062-35.332031 28.667969-63.960938 64-64zm0 0" fill="#726658"></path><path d="m240.5 208c35.34375 0 64-28.65625 64-64 0-35.347656-28.65625-64-64-64-35.347656 0-64 28.652344-64 64 .039062 35.328125 28.667969 63.957031 64 64zm0-104v40l24-16-24 16zm0 0" fill="#ffeb99"></path><path d="m272.5 232h16c8.835938 0 16 7.160156 16 16v48c0 8.835938-7.164062 16-16 16h-16c-8.835938 0-16-7.164062-16-16v-48c0-8.839844 7.164062-16 16-16zm0 0" fill="#55c9f4"></path><path d="m192.5 232h16c8.835938 0 16 7.160156 16 16v48c0 8.835938-7.164062 16-16 16h-16c-8.835938 0-16-7.164062-16-16v-48c0-8.839844 7.164062-16 16-16zm0 0" fill="#55c9f4"></path><path d="m272.5 344h16c8.835938 0 16 7.160156 16 16v48c0 8.835938-7.164062 16-16 16h-16c-8.835938 0-16-7.164062-16-16v-48c0-8.839844 7.164062-16 16-16zm0 0" fill="#55c9f4"></path><g fill="#8edbf8"><path d="m392.5 232h16c8.835938 0 16 7.160156 16 16v48c0 8.835938-7.164062 16-16 16h-16c-8.835938 0-16-7.164062-16-16v-48c0-8.839844 7.164062-16 16-16zm0 0"></path><path d="m392.5 344h16c8.835938 0 16 7.160156 16 16v48c0 8.835938-7.164062 16-16 16h-16c-8.835938 0-16-7.164062-16-16v-48c0-8.839844 7.164062-16 16-16zm0 0"></path><path d="m72.5 232h16c8.835938 0 16 7.160156 16 16v48c0 8.835938-7.164062 16-16 16h-16c-8.835938 0-16-7.164062-16-16v-48c0-8.839844 7.164062-16 16-16zm0 0"></path><path d="m72.5 344h16c8.835938 0 16 7.160156 16 16v48c0 8.835938-7.164062 16-16 16h-16c-8.835938 0-16-7.164062-16-16v-48c0-8.839844 7.164062-16 16-16zm0 0"></path></g><path d="m192.5 344h16c8.835938 0 16 7.160156 16 16v48c0 8.835938-7.164062 16-16 16h-16c-8.835938 0-16-7.164062-16-16v-48c0-8.839844 7.164062-16 16-16zm0 0" fill="#55c9f4"></path><path d="m240.5 72c-39.765625 0-72 32.234375-72 72 0 39.761719 32.234375 72 72 72 39.761719 0 72-32.238281 72-72-.050781-39.746094-32.257812-71.953125-72-72zm0 128c-30.929688 0-56-25.074219-56-56 0-30.929688 25.070312-56 56-56 30.925781 0 56 25.070312 56 56-.035156 30.910156-25.085938 55.964844-56 56zm0 0"></path><path d="m260.058594 121.34375-11.558594 7.703125v-25.046875c0-4.421875-3.582031-8-8-8s-8 3.578125-8 8v40c0 2.949219 1.621094 5.660156 4.226562 7.054688 2.601563 1.390624 5.757813 1.238281 8.210938-.402344l24-16c3.675781-2.449219 4.667969-7.417969 2.21875-11.09375-2.453125-3.675782-7.421875-4.667969-11.097656-2.214844zm0 0"></path><path d="m288.5 224h-16c-13.253906 0-24 10.742188-24 24v48c0 13.253906 10.746094 24 24 24h16c13.253906 0 24-10.746094 24-24v-48c0-13.257812-10.746094-24-24-24zm8 72c0 4.417969-3.582031 8-8 8h-16c-4.417969 0-8-3.582031-8-8v-48c0-4.421875 3.582031-8 8-8h16c4.417969 0 8 3.578125 8 8zm0 0"></path><path d="m208.5 224h-16c-13.253906 0-24 10.742188-24 24v48c0 13.253906 10.746094 24 24 24h16c13.253906 0 24-10.746094 24-24v-48c0-13.257812-10.746094-24-24-24zm8 72c0 4.417969-3.582031 8-8 8h-16c-4.417969 0-8-3.582031-8-8v-48c0-4.421875 3.582031-8 8-8h16c4.417969 0 8 3.578125 8 8zm0 0"></path><path d="m288.5 336h-16c-13.253906 0-24 10.742188-24 24v48c0 13.253906 10.746094 24 24 24h16c13.253906 0 24-10.746094 24-24v-48c0-13.257812-10.746094-24-24-24zm8 72c0 4.417969-3.582031 8-8 8h-16c-4.417969 0-8-3.582031-8-8v-48c0-4.421875 3.582031-8 8-8h16c4.417969 0 8 3.578125 8 8zm0 0"></path><path d="m392.5 320h16c13.253906 0 24-10.746094 24-24v-48c0-13.257812-10.746094-24-24-24h-16c-13.253906 0-24 10.742188-24 24v48c0 13.253906 10.746094 24 24 24zm-8-72c0-4.421875 3.582031-8 8-8h16c4.417969 0 8 3.578125 8 8v48c0 4.417969-3.582031 8-8 8h-16c-4.417969 0-8-3.582031-8-8zm0 0"></path><path d="m392.5 432h16c13.253906 0 24-10.746094 24-24v-48c0-13.257812-10.746094-24-24-24h-16c-13.253906 0-24 10.742188-24 24v48c0 13.253906 10.746094 24 24 24zm-8-72c0-4.421875 3.582031-8 8-8h16c4.417969 0 8 3.578125 8 8v48c0 4.417969-3.582031 8-8 8h-16c-4.417969 0-8-3.582031-8-8zm0 0"></path><path d="m88.5 224h-16c-13.253906 0-24 10.742188-24 24v48c0 13.253906 10.746094 24 24 24h16c13.253906 0 24-10.746094 24-24v-48c0-13.257812-10.746094-24-24-24zm8 72c0 4.417969-3.582031 8-8 8h-16c-4.417969 0-8-3.582031-8-8v-48c0-4.421875 3.582031-8 8-8h16c4.417969 0 8 3.578125 8 8zm0 0"></path><path d="m88.5 336h-16c-13.253906 0-24 10.742188-24 24v48c0 13.253906 10.746094 24 24 24h16c13.253906 0 24-10.746094 24-24v-48c0-13.257812-10.746094-24-24-24zm8 72c0 4.417969-3.582031 8-8 8h-16c-4.417969 0-8-3.582031-8-8v-48c0-4.421875 3.582031-8 8-8h16c4.417969 0 8 3.578125 8 8zm0 0"></path><path d="m208.5 336h-16c-13.253906 0-24 10.742188-24 24v48c0 13.253906 10.746094 24 24 24h16c13.253906 0 24-10.746094 24-24v-48c0-13.257812-10.746094-24-24-24zm8 72c0 4.417969-3.582031 8-8 8h-16c-4.417969 0-8-3.582031-8-8v-48c0-4.421875 3.582031-8 8-8h16c4.417969 0 8 3.578125 8 8zm0 0"></path><path d="m472.5 440h-8v-280h8c2.351562-.003906 4.582031-1.039062 6.101562-2.832031 1.519532-1.796875 2.171876-4.167969 1.785157-6.488281l-16-96c-.644531-3.855469-3.980469-6.679688-7.886719-6.679688h-51.058594l-13.742187-27.578125c-1.363281-2.726563-4.152344-4.441406-7.199219-4.421875h-124.6875l-13.65625-13.65625c-3.125-3.125-8.1875-3.125-11.3125 0l-13.65625 13.65625h-124.6875c-3.03125-.003906-5.804688 1.710938-7.160156 4.421875l-13.785156 27.578125h-51.054688c-3.910156 0-7.242188 2.824219-7.890625 6.679688l-16 96c-.386719 2.320312.265625 4.691406 1.785156 6.488281 1.519531 1.792969 3.753907 2.828125 6.105469 2.832031h8v280h-8c-4.417969 0-8 3.578125-8 8v32c0 4.417969 3.582031 8 8 8h464c4.417969 0 8-3.582031 8-8v-32c0-4.421875-3.582031-8-8-8zm-24 0h-104v-280h104zm14.550781-296h-118.550781v-40c0-2.125-.84375-4.15625-2.34375-5.65625l-34.34375-34.34375h141.910156zm-83.496093-112 8 16h-95.742188l-16-16zm-278.113282 0h103.746094l-16 16h-95.746094zm-70.167968 32h141.914062l-34.34375 34.34375c-1.5 1.5-2.34375 3.53125-2.34375 5.65625v40h-118.554688zm1.226562 96h104v280h-104zm-16 296h120v16h-120zm136 16v-364.691406l88-88 88 88v364.691406zm312 0h-120v-16h120zm0 0"></path></svg>