<!-- icon666.com - MILLIONS vector ICONS FREE --><svg version="1.1" id="Capa_1" xmlns="http://www.w3.org/2000/svg" xmlns:xlink="http://www.w3.org/1999/xlink" x="0px" y="0px" viewBox="0 0 512 512" style="enable-background:new 0 0 512 512;" xml:space="preserve"><circle style="fill:#FFCF9A;" cx="90.41" cy="113.039" r="52.655"></circle><path style="fill:#57A3FF;" d="M156.66,165.691H24.168C17.659,172.2,14.009,175.85,7.5,182.359V303.14h36.414v148.476h36.414 v-137.45h20.173v137.45h36.414v-176.55h64.489v-36.414h-28.075v-56.293L156.66,165.691z"></path><g><rect x="99.15" y="164.579" style="fill:#006DEF;" width="22.537" height="22.537"></rect><polygon style="fill:#006DEF;" points="102.564,187.115 118.265,187.115 126.115,269.951 118.265,283.548 102.564,283.548 94.713,269.951 "></polygon></g><g><rect x="79.15" y="164.579" style="fill:#FF4655;" width="22.537" height="22.537"></rect><polygon style="fill:#FF4655;" points="82.564,187.115 98.265,187.115 106.115,269.951 98.265,283.548 82.564,283.548 74.713,269.951 "></polygon><path style="fill:#FF4655;" d="M178.285,378.441c-4.371,4.371-6.822,6.822-11.193,11.193v61.982h112.469v-61.982 c-4.371-4.371-6.822-6.822-11.193-11.193H178.285z"></path></g><circle style="fill:#FFCF9A;" cx="223.33" cy="341.279" r="37.16"></circle><path style="fill:#FF4655;" d="M290.754,378.441c-4.371,4.371-6.822,6.822-11.193,11.193v61.982H392.03v-61.982 c-4.371-4.371-6.822-6.822-11.193-11.193H290.754z"></path><circle style="fill:#FFCF9A;" cx="335.8" cy="341.279" r="37.16"></circle><path style="fill:#FF4655;" d="M403.224,378.441c-4.371,4.371-6.822,6.822-11.193,11.193v61.982H504.5v-61.982 c-4.371-4.371-6.822-6.822-11.193-11.193H403.224z"></path><circle style="fill:#FFCF9A;" cx="448.26" cy="341.279" r="37.16"></circle><polygon style="fill:#A1FFF6;" points="173.329,60.381 173.329,182.359 173.329,238.652 201.403,238.652 201.403,275.066 504.5,275.075 504.5,60.381 "></polygon><g><rect x="79.15" y="164.579" style="fill:#D73532;" width="22.537" height="22.537"></rect><polygon style="fill:#D73532;" points="82.564,187.115 98.265,187.115 106.115,269.951 98.265,283.548 82.564,283.548 74.713,269.951 "></polygon></g><path style="fill:#FFA06F;" d="M67.759,113.036c0-23.867,15.885-44.014,37.655-50.474c-4.755-1.411-9.787-2.18-15-2.18 c-29.08,0-52.655,23.574-52.655,52.655s23.574,52.655,52.655,52.655c5.213,0,10.245-0.769,15-2.18 C83.644,157.05,67.759,136.903,67.759,113.036z"></path><g><rect x="110.33" y="314.169" style="fill:#006DEF;" width="20.17" height="137.45"></rect><path style="fill:#006DEF;" d="M54.168,165.691h-30C17.659,172.2,14.009,175.85,7.5,182.359V303.14h30V182.359 C44.009,175.85,47.659,172.2,54.168,165.691z"></path><rect x="43.914" y="303.139" style="fill:#006DEF;" width="30" height="148.48"></rect></g><path style="fill:#D73532;" d="M208.285,378.441h-30c-4.371,4.371-6.822,6.822-11.193,11.193v61.982h30v-61.982 C201.463,385.264,203.914,382.813,208.285,378.441z"></path><path style="fill:#FFA06F;" d="M216.164,341.279c0-15.185,9.112-28.234,22.162-34c-4.589-2.028-9.661-3.162-15-3.162 c-20.524,0-37.162,16.638-37.162,37.162s16.638,37.162,37.162,37.162c5.339,0,10.411-1.135,15-3.162 C225.276,369.513,216.164,356.464,216.164,341.279z"></path><polygon style="fill:#D73532;" points="320.754,378.441 290.754,378.441 279.561,389.635 279.561,451.617 309.561,451.617 309.561,389.635 "></polygon><path style="fill:#FFA06F;" d="M328.634,341.279c0-15.185,9.112-28.234,22.162-34c-4.589-2.028-9.661-3.162-15-3.162 c-20.524,0-37.162,16.638-37.162,37.162s16.638,37.162,37.162,37.162c5.339,0,10.411-1.135,15-3.162 C337.746,369.513,328.634,356.464,328.634,341.279z"></path><polygon style="fill:#D73532;" points="433.224,378.441 403.224,378.441 392.031,389.635 392.031,451.617 422.031,451.617 422.031,389.635 "></polygon><path style="fill:#FFA06F;" d="M441.103,341.279c0-15.185,9.112-28.234,22.162-34c-4.589-2.028-9.661-3.162-15-3.162 c-20.524,0-37.162,16.638-37.162,37.162s16.638,37.162,37.162,37.162c5.339,0,10.411-1.135,15-3.162 C450.215,369.513,441.103,356.464,441.103,341.279z"></path><polygon style="fill:#00FFF6;" points="231.403,275.066 231.403,238.652 203.329,238.652 203.329,60.381 173.329,60.381 173.329,238.652 201.403,238.652 201.403,275.066 504.5,275.075 504.5,275.074 "></polygon><g><rect x="347.39" y="420.699" style="fill:#1D1D1F;" width="15" height="15"></rect><rect x="297.39" y="420.699" style="fill:#1D1D1F;" width="15" height="15"></rect><rect x="322.39" y="420.699" style="fill:#1D1D1F;" width="15" height="15"></rect><rect x="438.7" y="238.949" style="fill:#1D1D1F;" width="15" height="15"></rect><rect x="463.7" y="238.949" style="fill:#1D1D1F;" width="15" height="15"></rect><rect x="413.7" y="238.949" style="fill:#1D1D1F;" width="15" height="15"></rect></g><g><path style="fill:#FFFFFF;" d="M117.238,139.859c7.164-7.165,11.11-16.691,11.11-26.823c0-9.134-3.288-17.955-9.259-24.837 l-11.33,9.83c3.605,4.154,5.59,9.484,5.589,15.007c0,6.125-2.386,11.885-6.717,16.217L117.238,139.859z"></path><path style="fill:#FFFFFF;" d="M74.198,96.819c2.717-2.717,5.944-4.65,9.592-5.745l-4.313-14.366 c-5.965,1.791-11.458,5.078-15.885,9.505L74.198,96.819z"></path><path style="fill:#FFFFFF;" d="M91.774,75.127l-0.534,14.99c3.783,0.135,7.498,1.209,10.741,3.107l7.574-12.947 C104.178,77.131,98.029,75.35,91.774,75.127z"></path><rect x="18.482" y="230.449" style="fill:#FFFFFF;" width="15" height="15"></rect><rect x="18.482" y="255.449" style="fill:#FFFFFF;" width="15" height="30.714"></rect><rect x="18.482" y="205.449" style="fill:#FFFFFF;" width="15" height="15"></rect></g><path style="fill:#1D1D1F;" d="M481.617,370.941c7.029-7.894,11.311-18.285,11.311-29.662c0-24.627-20.035-44.662-44.662-44.662 s-44.663,20.035-44.663,44.662c0,11.377,4.282,21.768,11.312,29.662h-14.797l-8.087,8.087l-8.087-8.087h-14.796 c7.029-7.894,11.311-18.285,11.311-29.662c0-24.627-20.035-44.662-44.662-44.662s-44.662,20.035-44.662,44.662 c0,11.377,4.282,21.768,11.311,29.662H287.65l-8.087,8.087l-8.087-8.087h-14.797c7.029-7.894,11.311-18.285,11.311-29.662 c0-24.627-20.035-44.662-44.662-44.662s-44.663,20.035-44.663,44.662c0,11.377,4.282,21.768,11.311,29.662h-14.797l-15.587,15.587 v72.589H512v-72.589l-15.587-15.587H481.617z M418.603,341.279c0-16.356,13.307-29.662,29.663-29.662 c16.355,0,29.662,13.306,29.662,29.662s-13.307,29.662-29.662,29.662C431.909,370.941,418.603,357.635,418.603,341.279z M306.134,341.279c0-16.356,13.307-29.662,29.662-29.662s29.662,13.306,29.662,29.662s-13.307,29.662-29.662,29.662 S306.134,357.635,306.134,341.279z M193.664,341.279c0-16.356,13.307-29.662,29.663-29.662c16.355,0,29.662,13.306,29.662,29.662 s-13.306,29.662-29.662,29.662S193.664,357.635,193.664,341.279z M272.062,444.117h-97.47v-51.376l6.8-6.8h83.87l6.8,6.8V444.117z M384.53,444.117h-97.469v-51.376l6.8-6.8h83.869l6.8,6.8L384.53,444.117L384.53,444.117z M497,444.117h-97.47v-51.376l6.8-6.8 h83.87l6.8,6.8L497,444.117L497,444.117z"></path><g><rect x="183.12" y="421.059" style="fill:#FFFFFF;" width="15" height="15"></rect><rect x="208.12" y="421.059" style="fill:#FFFFFF;" width="15" height="15"></rect><rect x="233.12" y="421.059" style="fill:#FFFFFF;" width="29.523" height="15"></rect></g><g><rect x="427.98" y="420.699" style="fill:#1D1D1F;" width="52.31" height="15"></rect><path style="fill:#1D1D1F;" d="M165.829,52.881v111.372l-6.062-6.062h-29.672c12.539-11.032,20.474-27.18,20.474-45.155 c0-6.125-0.919-12.169-2.731-17.966l-14.316,4.476c1.358,4.346,2.047,8.885,2.047,13.49c0,21.547-15.175,39.607-35.396,44.081 l-19.63-0.026c-20.165-4.516-35.284-22.547-35.284-44.055c0-24.899,20.256-45.155,45.155-45.155 c15.12,0,29.169,7.519,37.581,20.112l12.474-8.331c-11.201-16.77-29.913-26.781-50.054-26.781 c-33.17,0-60.155,26.985-60.155,60.155c0,17.975,7.935,34.122,20.474,45.155H21.062L0,179.253v131.388h36.414v148.477h51.414 v-69.334h-15v54.334H51.414v-218.25h-15v69.773H15V185.466l12.275-12.275H71.65v21.378l2.674,0.004l-7.303,77.055l11.213,19.421 h24.361l11.212-19.421l-7.298-77.012l2.67,0.004v-21.428h44.374l12.275,12.275v60.686h28.075v21.414h-49.489v-41.698h-15v218.25 H108v-137.45H72.828v68.116h15v-53.116h5.173v137.45h51.414V282.566l0,0L512,282.575V52.881H165.829z M93.935,276.048h-7.041 l-4.488-7.773l6.981-73.66h2.056l6.98,73.66L93.935,276.048z M94.18,179.615h-7.53v-6.424h7.53V179.615z M497,267.575 l-288.097-0.009v-36.414h-28.075V67.881H497V267.575z"></path></g><g><rect x="394" y="80.95" style="fill:#FFFFFF;" width="85.29" height="15"></rect><rect x="344" y="80.95" style="fill:#FFFFFF;" width="15" height="15"></rect><rect x="369" y="80.95" style="fill:#FFFFFF;" width="15" height="15"></rect></g><g><rect x="249.32" y="115.849" style="fill:#1D1D1F;" width="208.19" height="15"></rect><rect x="220.32" y="150.849" style="fill:#1D1D1F;" width="152.64" height="15"></rect><rect x="249.32" y="185.849" style="fill:#1D1D1F;" width="208.19" height="15"></rect><rect x="220.32" y="220.849" style="fill:#1D1D1F;" width="152.64" height="15"></rect></g></svg>