<!-- icon666.com - MILLIONS vector ICONS FREE --><svg xmlns="http://www.w3.org/2000/svg" viewBox="0 0 64 64"><g id="Outline"><path d="M16.188,47.982a1,1,0,0,0-1.163-.8A10.988,10.988,0,0,0,6,58v3a1,1,0,0,0,2,0V58a8.987,8.987,0,0,1,7.383-8.854A1,1,0,0,0,16.188,47.982Z"></path><path d="M31,47H30V44.981A9.983,9.983,0,0,0,34,37V35a1,1,0,0,0-2,0v2a8,8,0,0,1-16,0V31.943a9.049,9.049,0,0,0,6.135-3.457A14.54,14.54,0,0,0,31.657,32H33a1,1,0,0,0,0-2H31.657a12.573,12.573,0,0,1-8.95-3.707.973.973,0,0,0-.778-.29,1,1,0,0,0-.729.4l-.6.8A7.037,7.037,0,0,1,15,30a1,1,0,0,0-1,1v6a9.95,9.95,0,0,0,2.657,6.765c-1.508-.247-2.981-.553-4.408-.933A5.881,5.881,0,0,1,8.51,39.784L8.5,39.77A5.012,5.012,0,0,0,12,35V31a11.862,11.862,0,0,1,1.331-5.465,1,1,0,1,0-1.779-.914A13.837,13.837,0,0,0,10,31v4a3,3,0,0,1-3,3,1,1,0,0,0-.895,1.447l.616,1.232a7.908,7.908,0,0,0,5.07,4.1A48.3,48.3,0,0,0,18,45.982V49a1,1,0,0,0,.317.724l-.081.04A5.823,5.823,0,0,0,15,55a1,1,0,0,0,2,0,3.831,3.831,0,0,1,2.131-3.447l1.316-.658a.982.982,0,0,0,.124-.1A10.687,10.687,0,0,0,23,51.322V56a1,1,0,0,0,2,0V51.322a10.661,10.661,0,0,0,2.407-.516l.7.52a10.642,10.642,0,0,1,3.928,5.916A1,1,0,0,0,33,58a1.017,1.017,0,0,0,.243-.03,1,1,0,0,0,.728-1.212,12.642,12.642,0,0,0-4.488-6.884c.011-.006.022-.01.033-.017A1,1,0,0,0,30,49h1a9.01,9.01,0,0,1,9,9v3a1,1,0,0,0,2,0V58A11.013,11.013,0,0,0,31,47Zm-3-.841v2.254a8.687,8.687,0,0,1-8,0V46.159a9.933,9.933,0,0,0,8,0Z"></path><path d="M24.792,22.378l-.085-.085a1,1,0,0,0-1.414,1.414l.085.085a15.886,15.886,0,0,0,7.38,4.178A1.017,1.017,0,0,0,31,28a1,1,0,0,0,.241-1.97A13.888,13.888,0,0,1,24.792,22.378Z"></path><path d="M18,24a2,2,0,0,1-2,2,1,1,0,0,0,0,2,4,4,0,0,0,4-4,1,1,0,0,0-2,0Z"></path><path d="M21,36a1,1,0,0,0,.707-1.707,2.472,2.472,0,0,0-3.414,0,1,1,0,0,0,1.414,1.414.414.414,0,0,1,.586,0A1,1,0,0,0,21,36Z"></path><path d="M28.293,35.707a1,1,0,0,0,1.414-1.414,2.472,2.472,0,0,0-3.414,0,1,1,0,0,0,1.414,1.414A.414.414,0,0,1,28.293,35.707Z"></path><path d="M24,41.912a6.4,6.4,0,0,0,3.555-1.08,1,1,0,1,0-1.11-1.664,4.4,4.4,0,0,1-4.89,0,1,1,0,1,0-1.11,1.664A6.4,6.4,0,0,0,24,41.912Z"></path><path d="M61.464,16.723l-2.69-4.659A6.948,6.948,0,0,0,59.2,6.976a1,1,0,1,0-1.914.58A5,5,0,1,1,55.3,4.868a1,1,0,0,0,1.123-1.656,6.987,6.987,0,0,0-10.812,4.56l-7.076,4.844-4.187.252a1,1,0,0,0-.807,1.5l5,8.66a1,1,0,0,0,.836.5h.03a1,1,0,0,0,.835-.449l2.312-3.5,8.027-3.846c.035.01.068.023.1.033a7.16,7.16,0,0,0,1.095.193l2.753,4.768a4,4,0,0,0,6.929-4Zm-22,3.9-3.382-5.857,2.232-.135L40.7,18.759Zm2.81-3.133L40.2,13.9l5.407-3.7a6.936,6.936,0,0,0,2.7,4.407ZM59,20.454a2,2,0,0,1-2.732-.731l-2.252-3.9a6.648,6.648,0,0,0,3.489-1.958l2.226,3.857A2,2,0,0,1,59,20.454Z"></path><path d="M53.276,6.3a3,3,0,1,0-1.553,5.8,3.027,3.027,0,0,0,.782.1,3,3,0,0,0,.771-5.9Zm.19,3.157A1,1,0,1,1,52.5,8.2a1.018,1.018,0,0,1,.261.035,1,1,0,0,1,.606.465v0A1,1,0,0,1,53.466,9.455Z"></path><path d="M7.7,13.6l1.484,1.483V20a1,1,0,0,0,2,0V17.085l2.3,2.3A1,1,0,1,0,14.9,17.975l-3.717-3.718V11.816a2.962,2.962,0,0,0,1,.184,3,3,0,1,0-3-3v3.257L7.121,10.2h0a3,3,0,1,0,0,4.244A2.971,2.971,0,0,0,7.7,13.6ZM12.182,8a1,1,0,1,1-1,1A1,1,0,0,1,12.182,8ZM5.707,13.025a1,1,0,1,1,0-1.415A1,1,0,0,1,5.707,13.025Z"></path><path d="M22.209,17.138a14.019,14.019,0,0,0-8.127,4,1,1,0,0,0,1.418,1.41,11.851,11.851,0,0,1,9.082-3.532,11.66,11.66,0,0,1,6.206,2.146L29.4,22.2a1,1,0,1,0,1.2,1.6l1.753-1.315A12.522,12.522,0,0,1,36,31.367V35a5.008,5.008,0,0,0,3.655,4.816,5.86,5.86,0,0,1-3.9,3.214q-1.13.282-2.268.5a1,1,0,0,0,.19,1.982.966.966,0,0,0,.191-.019q1.191-.229,2.371-.525a7.855,7.855,0,0,0,5.728-5.728A1,1,0,0,0,41,38a3,3,0,0,1-3-3V31.367c0-.207-.021-.409-.029-.614a6.547,6.547,0,0,0,6.5.936l.549-.22a3.146,3.146,0,0,0-.172-5.906l-.191-.064a3.267,3.267,0,0,0-3.365.794,1,1,0,0,0,1.414,1.414,1.286,1.286,0,0,1,1.318-.311l.192.064a1.146,1.146,0,0,1,.061,2.151l-.549.221a4.593,4.593,0,0,1-4.653-.736,4.655,4.655,0,0,1-1.5-4.825,1,1,0,0,0-.692-1.234.99.99,0,0,0-1.133.5,14.313,14.313,0,0,0-1.78-2.262L34.6,20.8a1,1,0,0,0-1.2-1.6l-.945.709a13.906,13.906,0,0,0-2.164-1.381l1.983-.566a1,1,0,1,0-.548-1.924l-3.119.891a5.19,5.19,0,0,1-5.423-1.671,2.583,2.583,0,0,1,.435-3.722.416.416,0,0,1,.541.038l.133.133a.416.416,0,0,1,0,.586,1,1,0,0,0,1.414,1.414,2.417,2.417,0,0,0,0-3.414l-.133-.133a2.421,2.421,0,0,0-3.155-.223,4.581,4.581,0,0,0-.772,6.6A7.272,7.272,0,0,0,22.209,17.138Z"></path><path d="M51.964,39.134l-.866-.5-2.6-1.5a1,1,0,1,0-1,1.732l1.731,1-1,1.732-1.732-1a1,1,0,0,0-1,1.732l1.732,1-1,1.732-1.732-1a1,1,0,0,0-1,1.732l1.732,1-1,1.732-1.732-1a1,1,0,0,0-1,1.733l2.6,1.5.866.5a4.006,4.006,0,0,0,5.465-1.465l3-5.2a4,4,0,0,0-1.465-5.464ZM51.7,43.6l-3,5.2a2,2,0,0,1-2.732.732l5-8.66A2,2,0,0,1,51.7,43.6Z"></path></g></svg>