<!-- icon666.com - MILLIONS vector ICONS FREE --><svg xmlns="http://www.w3.org/2000/svg" xmlns:xlink="http://www.w3.org/1999/xlink" version="1.1" id="Take_x5F_vacation" x="0px" y="0px" viewBox="0 0 512 512" enable-background="new 0 0 512 512" xml:space="preserve"><g><g><g><rect x="22.843" y="211.923" fill="#FB9D6E" width="466.313" height="216.838"></rect><path fill="#1E7C89" d="M489.156,384.865c-19.559,0-19.559,20-39.117,20s-19.559-20-39.117-20v20H101.455 c-19.559,0-19.559-20-39.117-20c-19.56,0-19.56,20-39.118,20v76.5h465.937V384.865z"></path><rect x="465.34" y="288.506" fill="#A75229" width="10.168" height="10.168"></rect><rect x="433.246" y="240.682" fill="#FFECB6" width="10.168" height="10.168"></rect><rect x="428.162" y="353.645" fill="#FFECB6" width="10.168" height="10.168"></rect><rect x="78.014" y="288.506" fill="#FFECB6" width="10.168" height="10.168"></rect><rect x="45.918" y="240.682" fill="#A75229" width="10.168" height="10.168"></rect><rect x="40.834" y="353.645" fill="#A75229" width="10.168" height="10.168"></rect></g><g><path fill="#D0E3E8" d="M411.656,105.635v375.73h-310.22v-375.73c0-38.66,31.341-70,70-70h170.22 C380.316,35.635,411.656,66.975,411.656,105.635z"></path><path fill="#7DABCF" d="M391.213,105.635v375.73H101.436v-375.73c0-38.66,31.341-70,70-70h149.777 C359.873,35.635,391.213,66.975,391.213,105.635z"></path><path fill="#1E7C89" d="M365.902,219.082l-68.25-73.85l0.098,1.931c-7.998-36.077-40.229-63.623-78.498-63.319 c-21.783,0.172-41.484,9.064-55.784,23.364c-14.443,14.436-23.372,34.381-23.372,56.414v57.323v29.767 c0,6.467-3.012,12.555-8.112,16.539c-11.152,8.699-18.32,22.27-18.32,37.508c0,13.393,5.548,25.48,14.45,34.113 c0.521-1.227-2.058,8.564-2.058,19.313v123.184h162.42v-89.992l81.264-134.547C377.008,244.795,375.443,229.406,365.902,219.082z M338.551,244.091l-22.836,31.667c-2.357-3.061-5.064-5.836-8.086-8.242c-5.008-3.984-7.955-10.008-7.955-16.404v-16.339 l0.316-43.499l38.244,44.957C340.137,238.466,340.266,241.71,338.551,244.091z"></path></g><g><path fill="#606060" d="M328.52,267.516c-5.008-3.984-7.955-10.008-7.955-16.404v-16.339v-70.207 c0-44.231-36.189-81.073-80.421-80.723c-21.783,0.172-41.484,9.064-55.784,23.364c-14.443,14.436-23.371,34.381-23.371,56.414 v57.323v29.767c0,6.467-3.012,12.555-8.113,16.539c-11.152,8.699-18.32,22.27-18.32,37.508c0,13.393,5.548,25.48,14.45,34.113 c6.313-14.842,19.25-26.379,35.568-30.545v-0.564c-3.376-9.371-5.121-19.279-5.121-29.295v-48.162v-18.081 c0-0.063,0.003-0.124,0.003-0.186c0.072-20.415,11.979-38.95,30.528-47.501h0.007c6.988-3.218,13.015-7.868,17.837-13.488h22.131 c3.344,3.393,7.464,6.06,12.156,7.689c0.256,0.089,0.48,0.164,0.672,0.223c22.449,6.951,38.758,26.789,38.793,51.509 c0,0.026,0.002,0.052,0.002,0.078v19.758v50.845c0,6.059-0.502,12.096-1.496,18.055c-0.5,2.998-1.123,5.975-1.867,8.93 c4.398,1.371,11.693,4.275,18.865,10.529c8.703,7.59,12.73,16.193,14.471,20.695c3.592-3.451,9.59-10.209,12.771-20.395 c1.402-4.486,2.158-9.26,2.158-14.207C346.482,289.678,339.465,276.236,328.52,267.516z"></path><path fill="#FAC1AC" d="M146.947,481.367V358.184c0-24.668,17.079-46.051,41.138-51.504l33.158-7.516l0.001-6.168v-12.111 l39.915,0.004v10.176l-0.002,8.1l50.604,11.049l47.682-66.122c1.715-2.38,1.586-5.625-0.316-7.86l-38.244-44.957l-2.338-46.042 l68.25,73.85c9.541,10.324,11.107,25.714,3.838,37.747l-81.262,134.547v89.992H146.947z"></path><g><path fill="#FB9D6E" d="M241.757,403.707c0,6.395-2.593,12.186-6.779,16.371c-3.939,3.939-9.309,6.469-15.264,6.754 c-0.367,0.018-0.733,0.027-1.109,0.027h-8.941c-18.342,0-33.211-14.871-33.211-33.213v-13.082h42.152 C231.396,380.564,241.757,390.926,241.757,403.707z"></path><path fill="#FB9D6E" d="M241.996,403.707c0,6.395,2.593,12.186,6.779,16.371c3.939,3.939,9.309,6.469,15.264,6.754 c0.367,0.018,0.732,0.027,1.109,0.027h8.941c18.342,0,33.211-14.871,33.211-33.213v-13.082h-42.152 C252.358,380.564,241.996,390.926,241.996,403.707z"></path><path fill="#E77B53" d="M241.747,386.256c0,6.979-2.83,13.299-7.4,17.869c-4.3,4.301-10.16,7.061-16.66,7.371 c-0.399,0.02-0.8,0.029-1.21,0.029h-9.76c-20.02,0-36.25-16.23-36.25-36.25v-14.279h46.01 C230.436,360.996,241.747,372.305,241.747,386.256z"></path><path fill="#DB5E3B" d="M241.747,386.256c0,6.979-2.83,13.299-7.4,17.869c-4.3,4.301-10.16,7.061-16.66,7.371 c-19.39-0.711-34.89-16.65-34.89-36.221v-14.279h33.68C230.436,360.996,241.747,372.305,241.747,386.256z"></path><path fill="#E77B53" d="M242.006,386.256c0,6.979,2.83,13.299,7.4,17.869c4.3,4.301,10.16,7.061,16.66,7.371 c0.4,0.02,0.801,0.029,1.211,0.029h9.76c20.02,0,36.25-16.23,36.25-36.25v-14.279h-46.01 C253.316,360.996,242.006,372.305,242.006,386.256z"></path><path fill="#DB5E3B" d="M242.006,386.256c0,6.979,2.83,13.299,7.4,17.869c4.3,4.301,10.16,7.061,16.66,7.371 c19.391-0.711,34.891-16.65,34.891-36.221v-14.279h-33.68C253.316,360.996,242.006,372.305,242.006,386.256z"></path></g><path fill="#FAC1AC" d="M301.783,209.759v13.59c0,2.11-0.111,4.19-0.32,6.24c-3.121,30.8-29.131,54.831-60.74,54.831h-0.271 c-16.76-0.08-31.92-6.9-42.91-17.891c-9.67-9.67-16.109-22.57-17.569-36.94c-0.21-2.05-0.32-4.13-0.32-6.24v-12.02 c0.04-11.24,3.67-21.91,10.02-30.66c5.181-7.14,12.17-12.99,20.511-16.84h0.01c6.7-3.09,12.52-7.48,17.229-12.78h23.471 c0.12,0.11,0.229,0.22,0.35,0.32c3.14,2.91,6.88,5.19,11.07,6.66c0.26,0.09,0.48,0.16,0.67,0.22 c12.15,3.76,22.5,11.3,29.439,21.34C298.322,188.099,301.764,198.419,301.783,209.759z"></path><path fill="#FB9D6E" d="M293.547,178.465c-4.18,4.61-10.211,7.51-16.92,7.51h-2.971c-12.609,0-22.83-10.22-22.83-22.83v-8.31 c0-1.73,0.58-3.32,1.54-4.59c3.14,2.91,6.879,5.19,11.069,6.66c0.262,0.09,0.48,0.16,0.672,0.22 C276.256,160.885,286.607,168.425,293.547,178.465z"></path><path fill="#FB9D6E" d="M232.457,154.835v8.31c0,12.61-10.221,22.83-22.82,22.83h-2.979c-6.171,0-11.771-2.44-15.86-6.43 c5.18-7.14,12.17-12.99,20.51-16.84h0.01c6.7-3.09,12.521-7.48,17.23-12.78h2.11 C231.787,151.245,232.457,152.955,232.457,154.835z"></path><path fill="#FFECB6" d="M276.625,171.438h-2.973c-12.605,0-22.826-10.22-22.826-22.826v-8.309c0-4.216,3.417-7.633,7.632-7.633 h33.359c4.215,0,7.633,3.417,7.633,7.633v8.309C299.451,161.219,289.23,171.438,276.625,171.438z"></path><path fill="#FFECB6" d="M209.632,171.438h-2.972c-12.606,0-22.826-10.22-22.826-22.826v-8.309c0-4.216,3.417-7.633,7.633-7.633 h33.358c4.215,0,7.633,3.417,7.633,7.633v8.309C232.458,161.219,222.239,171.438,209.632,171.438z"></path><path fill="#424242" d="M301.777,229.594v50.844c0,6.061-0.479,12.094-1.443,18.059c-0.488,2.992-1.09,5.975-1.809,8.924v1.543 c-1.84-0.674-3.738-1.244-5.676-1.697l-32.15-7.525l-0.133,0.111v-18.289c22.049-7.227,38.504-27.458,40.906-51.969H301.777z"></path><path fill="#424242" d="M197.541,266.529c6.103,6.102,13.5,10.926,21.732,14.012v19.227l-33.093,7.498 c-0.469,0.104-0.937,0.23-1.405,0.35v-0.563c-3.375-9.373-5.122-19.285-5.122-29.299v-48.16h0.315 C181.433,243.962,187.868,256.865,197.541,266.529z"></path></g></g><g><path fill="#1C243E" d="M212.798,219.566c-3.079,0-5.585-2.505-5.585-5.585h-10c0,8.594,6.991,15.585,15.585,15.585 s15.585-6.991,15.585-15.585h-10C218.383,217.061,215.877,219.566,212.798,219.566z"></path><path fill="#1C243E" d="M286.008,213.981h-10c0,3.08-2.506,5.585-5.584,5.585c-3.08,0-5.586-2.505-5.586-5.585h-10 c0,8.594,6.992,15.585,15.585,15.585S286.008,222.575,286.008,213.981z"></path><path fill="#1C243E" d="M95.704,398.555c-4.112-1.377-6.929-4.242-10.232-7.619c-5.013-5.125-11.251-11.504-23.134-11.504 c-11.884,0-18.122,6.379-23.135,11.504c-4.642,4.746-8.308,8.496-15.983,8.496v10c11.883,0,18.121-6.379,23.133-11.504 c4.643-4.748,8.31-8.496,15.985-8.496s11.342,3.748,15.983,8.496c4.133,4.225,9.107,9.293,17.383,10.945v72.494h10v-51.318h36.919 v51.318h10V357.061c0-22.484,15.314-41.658,37.243-46.629l37.053-8.398V286.07c4.729,1.08,9.645,1.67,14.697,1.67 c5.238,0,10.328-0.631,15.216-1.791v16.117l57.742,12.605l49.598-68.78c3.07-4.259,2.84-10.027-0.563-14.025l-37.059-43.562 V163.33c0-1.348-0.037-2.69-0.1-4.028l57.346,62.049c7.982,8.637,9.311,21.701,3.23,31.769l-68.742,113.813v-10.938h-51.014 c-10.633,0-19.997,5.518-25.395,13.834c-5.399-8.316-14.763-13.834-25.396-13.834h-51.014v19.275 c0,7.279,1.903,14.121,5.227,20.064v86.031h10v-74.119c7.104,5.793,16.165,9.275,26.025,9.275h9.762 c10.634,0,19.997-5.518,25.396-13.836c5.398,8.318,14.762,13.836,25.395,13.836h9.762c9.982,0,19.148-3.566,26.291-9.488v74.332 h10v-51.318h60.785v-10h-60.785v-25.18c0.389-0.719,0.75-1.453,1.098-2.195l25.23-41.773h66.27v69.148h-16.875v10h16.875v51.318 h10V390.07c4.531,1.264,7.48,4.275,10.982,7.855c5.014,5.127,11.252,11.506,23.135,11.506s18.121-6.379,23.135-11.504 c4.641-4.748,8.307-8.496,15.982-8.496v-10c-11.883,0-18.121,6.379-23.133,11.504c-4.643,4.746-8.309,8.496-15.984,8.496 s-11.342-3.75-15.984-8.496c-4.256-4.352-9.408-9.592-18.133-11.08V216.923h73.234v-10h-73.234v-101.29c0-41.355-33.645-75-75-75 H170.704c-41.355,0-75,33.645-75,75v101.29H22.844v10h72.859V398.555z M144.896,340.9h-39.192v-69.963h36.276 c-7.197,9.137-11.183,20.441-11.183,32.4c0,13.488,5.255,26.494,14.503,36.199C145.159,339.988,145.028,340.443,144.896,340.9z M105.704,420.049V350.9h37.252c-0.212,2.027-0.333,4.08-0.333,6.16v62.988H105.704z M185.634,256.625 c2.786,4.457,6.087,8.561,9.823,12.223v8c0,7.254,0.878,14.455,2.582,21.477l-8.986,2.037c-2.261-7.557-3.419-15.365-3.419-23.279 V256.625z M216.918,294.047l-9.126,2.068c-1.536-6.277-2.328-12.717-2.334-19.203c3.593,2.363,7.428,4.381,11.46,6.016V294.047z M185.634,221.797v-10.87c0-13.425,5.618-26.07,15.477-35.046c1.794,0.365,3.649,0.557,5.55,0.557h2.972 c13.17,0,24.225-9.2,27.094-21.509h9.833c2.869,12.309,13.923,21.509,27.093,21.509h2.973c2.682,0,5.271-0.389,7.727-1.1 c8.561,9.259,13.246,21.187,13.246,33.91v12.51c0,30.869-25.113,55.982-55.982,55.982 C210.759,277.74,185.656,252.648,185.634,221.797z M188.834,148.612v-8.309c0-1.452,1.181-2.633,2.633-2.633h33.358 c1.452,0,2.633,1.181,2.633,2.633v8.309c0,9.83-7.997,17.826-17.826,17.826h-2.972 C196.832,166.438,188.834,158.442,188.834,148.612z M276.625,166.438h-2.973c-9.828,0-17.826-7.997-17.826-17.826v-8.309 c0-1.452,1.181-2.633,2.632-2.633h33.359c1.451,0,2.633,1.181,2.633,2.633v8.309C294.451,158.442,286.453,166.438,276.625,166.438 z M296.17,296.961c-0.189,1.123-0.406,2.223-0.625,3.322l-9.887-2.16c1.672-6.957,2.531-14.088,2.531-21.275v-8.396 c3.57-3.561,6.725-7.533,9.408-11.828v23.133C297.598,285.502,297.117,291.291,296.17,296.961z M266.832,282.723 c3.998-1.66,7.801-3.699,11.357-6.078v0.203c0,6.469-0.781,12.887-2.303,19.143l-9.055-1.977V282.723z M310.299,303.504 l-4.973-1.086c0.252-1.254,0.49-2.521,0.705-3.805c1.039-6.215,1.566-12.561,1.566-18.857v-70.507 c0-14.318-4.943-27.799-14.031-38.583c6.611-5.092,10.885-13.081,10.885-22.053v-8.309c0-6.966-5.668-12.633-12.633-12.633 h-33.359c-6.965,0-12.632,5.667-12.632,12.633v4.626h-8.368v-3.224l0.133,0.085c5.9-9.229,9.02-19.914,9.02-30.9v-7.268h-10v7.268 c0,6.729-1.419,13.319-4.138,19.382c-2.125-1.625-4.771-2.602-7.647-2.602h-33.358c-6.966,0-12.633,5.667-12.633,12.633v8.309 c0,9.599,4.886,18.077,12.3,23.081c-9.916,10.576-15.5,24.516-15.5,39.234v10.831h-0.001c0,0.013,0.001,0.025,0.001,0.039v55.285 c0,8.873,1.297,17.629,3.826,26.102c-12.949,4.996-23.391,14.324-29.804,26.098c-5.685-7.379-8.859-16.514-8.859-25.943 c0-13.188,5.967-25.406,16.371-33.521c6.369-4.971,10.022-12.426,10.022-20.457v-86.973c0-19.946,7.768-38.699,21.87-52.803 c13.957-13.947,32.502-21.712,52.221-21.864c0.198-0.002,0.394-0.002,0.593-0.002c19.499,0,37.981,7.691,52.098,21.695 c14.561,14.444,22.578,33.592,22.578,53.917v86.427c0,7.933,3.588,15.333,9.836,20.294c1.721,1.371,3.314,2.881,4.797,4.49 L310.299,303.504z M355.992,238.348c0.412,0.483,0.439,1.18,0.068,1.695l-18.924,26.242c-1.428-1.434-2.936-2.795-4.527-4.061 c-3.85-3.059-6.059-7.603-6.059-12.468v-46.017L355.992,238.348z M369.34,190.974h36.582v69.963h-11.934l1.6-2.646 c8.369-13.858,6.539-31.839-4.447-43.727L369.34,190.974z M216.48,406.523h-9.762c-17.232,0-31.252-14.02-31.252-31.252v-9.275 h41.014c11.174,0,20.264,9.09,20.264,20.264S227.654,406.523,216.48,406.523z M277.033,406.523h-9.762 c-11.173,0-20.263-9.09-20.263-20.264s9.09-20.264,20.263-20.264h41.014v9.275C308.285,392.504,294.266,406.523,277.033,406.523z M345.691,340.9l42.258-69.963h17.973V340.9H345.691z M170.704,40.633h170.218c34.285,0,62.436,26.688,64.816,60.378h-85.881v10 h86.064v69.962H361.32v1.323l-37.541-40.621c-3.842-14.743-11.594-28.282-22.764-39.363 c-16.006-15.877-36.982-24.596-59.138-24.596c-0.224,0-0.45,0.001-0.674,0.002c-22.358,0.172-43.386,8.976-59.213,24.792 c-15.992,15.994-24.8,37.258-24.8,59.875v86.973c0,4.425-1.826,8.561-5.036,11.578h-46.451v-69.963h41.919v-10h-41.919v-69.962 h55.817v-10h-55.635C108.267,67.321,136.418,40.633,170.704,40.633z"></path><rect x="135.797" y="57.093" fill="#1C243E" width="228.507" height="10"></rect></g></g></svg>